<svg width="231" height="134" viewBox="0 0 231 134" fill="none" xmlns="http://www.w3.org/2000/svg">
<path d="M55.0283 124.761V123.892H58.6196V124.761L57.5003 124.953V128.395H62.3483V124.953L61.229 124.761V123.892H64.8203V124.761L63.701 124.953V132.802L64.8203 132.994V133.856H61.229V132.994L62.3483 132.802V129.456H57.5003V132.802L58.6196 132.994V133.856H55.0283V132.994L56.1476 132.802V124.953L55.0283 124.761Z" fill="#363330"/>
<path d="M70.8084 133.856C70.7672 133.656 70.7352 133.475 70.7123 133.316C70.6894 133.156 70.6734 132.996 70.6642 132.837C70.4033 133.17 70.076 133.448 69.6823 133.671C69.2932 133.89 68.8766 134 68.4325 134C67.6589 134 67.0706 133.813 66.6678 133.439C66.2649 133.06 66.0635 132.529 66.0635 131.844C66.0635 131.142 66.3473 130.601 66.915 130.222C67.4872 129.839 68.27 129.647 69.2634 129.647H70.6574V128.785C70.6574 128.352 70.52 128.009 70.2454 127.759C69.9707 127.503 69.5884 127.375 69.0986 127.375C68.7599 127.375 68.46 127.419 68.1991 127.505C67.9427 127.592 67.7344 127.711 67.5742 127.861L67.43 128.641H66.3862V127.204C66.725 126.935 67.1347 126.721 67.6154 126.561C68.0961 126.397 68.6179 126.315 69.181 126.315C70.0233 126.315 70.7054 126.529 71.2273 126.958C71.7492 127.387 72.0101 128 72.0101 128.799V132.364C72.0101 132.46 72.0101 132.554 72.0101 132.645C72.0147 132.736 72.0216 132.827 72.0307 132.919L72.5801 132.994V133.856H70.8084ZM68.6317 132.871C69.0803 132.871 69.49 132.764 69.8608 132.549C70.2316 132.335 70.4971 132.077 70.6574 131.776V130.558H69.2153C68.6614 130.558 68.222 130.685 67.8969 130.941C67.5765 131.196 67.4163 131.507 67.4163 131.872C67.4163 132.196 67.517 132.444 67.7184 132.618C67.9198 132.786 68.2242 132.871 68.6317 132.871Z" fill="#363330"/>
<path d="M73.7061 132.994L74.8254 132.802V127.512L73.7061 127.321V126.451H76.1782V132.802L77.2975 132.994V133.856H73.7061V132.994ZM76.1782 124.556H74.8254V123.18H76.1782V124.556Z" fill="#363330"/>
<path d="M78.334 127.321V126.451H80.6619L80.7923 127.526C81.0029 127.147 81.2616 126.851 81.5683 126.636C81.8796 126.422 82.2344 126.315 82.6326 126.315C82.7379 126.315 82.8455 126.324 82.9554 126.342C83.0698 126.356 83.1568 126.372 83.2163 126.39L83.0378 127.642L82.2687 127.601C81.9116 127.601 81.6118 127.686 81.3692 127.854C81.1265 128.019 80.9388 128.251 80.8061 128.552V132.802L81.9254 132.994V133.856H78.334V132.994L79.4533 132.802V127.512L78.334 127.321Z" fill="#363330"/>
<path d="M87.3577 132.946C87.8063 132.946 88.2 132.809 88.5388 132.535C88.8821 132.257 89.0538 131.917 89.0538 131.516H90.2692L90.2829 131.557C90.3058 132.196 90.0197 132.764 89.4246 133.261C88.8341 133.754 88.1451 134 87.3577 134C86.2773 134 85.451 133.649 84.8788 132.946C84.3111 132.243 84.0273 131.361 84.0273 130.298V130.01C84.0273 128.956 84.3134 128.078 84.8857 127.375C85.4579 126.668 86.2819 126.315 87.3577 126.315C87.9528 126.315 88.4861 126.413 88.9577 126.609C89.4337 126.805 89.8274 127.074 90.1387 127.416L90.2005 129.059H89.1225L88.8272 127.895C88.667 127.74 88.461 127.615 88.2092 127.519C87.9574 127.423 87.6736 127.375 87.3577 127.375C86.6481 127.375 86.14 127.631 85.8333 128.142C85.5311 128.648 85.3801 129.271 85.3801 130.01V130.298C85.3801 131.055 85.5311 131.687 85.8333 132.193C86.1354 132.695 86.6435 132.946 87.3577 132.946Z" fill="#363330"/>
<path d="M96.9158 132.761C96.6823 133.158 96.3801 133.464 96.0093 133.678C95.6431 133.893 95.2197 134 94.739 134C93.9333 134 93.3038 133.742 92.8506 133.227C92.3974 132.711 92.1708 131.908 92.1708 130.818V127.512L91.3193 127.321V126.451H93.5236V130.831C93.5236 131.621 93.6403 132.164 93.8738 132.46C94.1072 132.757 94.4712 132.905 94.9656 132.905C95.4463 132.905 95.8423 132.809 96.1535 132.618C96.4694 132.421 96.7075 132.145 96.8677 131.789V127.512L95.872 127.321V126.451H98.2204V132.802L99.0719 132.994V133.856H97.005L96.9158 132.761Z" fill="#363330"/>
<path d="M102.505 124.665V126.451H103.913V127.451H102.505V131.947C102.505 132.294 102.576 132.538 102.718 132.679C102.865 132.821 103.057 132.891 103.295 132.891C103.414 132.891 103.547 132.882 103.693 132.864C103.844 132.841 103.97 132.818 104.071 132.795L104.256 133.719C104.128 133.802 103.941 133.868 103.693 133.918C103.446 133.973 103.199 134 102.952 134C102.402 134 101.965 133.836 101.64 133.507C101.315 133.174 101.153 132.654 101.153 131.947V127.451H99.9785V126.451H101.153V124.665H102.505Z" fill="#363330"/>
<path d="M110.979 128.778H109.963L109.743 127.889C109.578 127.733 109.37 127.61 109.118 127.519C108.871 127.423 108.589 127.375 108.274 127.375C107.793 127.375 107.436 127.48 107.202 127.69C106.969 127.9 106.852 128.153 106.852 128.45C106.852 128.742 106.955 128.972 107.161 129.141C107.367 129.31 107.786 129.46 108.418 129.593C109.356 129.793 110.054 130.067 110.512 130.414C110.97 130.756 111.199 131.217 111.199 131.796C111.199 132.453 110.931 132.985 110.395 133.391C109.864 133.797 109.168 134 108.308 134C107.745 134 107.239 133.936 106.79 133.808C106.342 133.676 105.941 133.487 105.589 133.24L105.582 131.55H106.598L106.852 132.542C107.008 132.684 107.218 132.786 107.484 132.85C107.754 132.914 108.029 132.946 108.308 132.946C108.789 132.946 109.164 132.85 109.434 132.659C109.709 132.462 109.846 132.207 109.846 131.892C109.846 131.596 109.732 131.351 109.503 131.16C109.278 130.968 108.85 130.802 108.219 130.66C107.317 130.464 106.637 130.197 106.179 129.86C105.721 129.522 105.492 129.066 105.492 128.491C105.492 127.889 105.749 127.375 106.262 126.951C106.779 126.527 107.45 126.315 108.274 126.315C108.837 126.315 109.342 126.388 109.791 126.534C110.24 126.68 110.613 126.883 110.91 127.143L110.979 128.778Z" fill="#363330"/>
<path d="M115.861 131.174C115.861 130.617 116.022 130.131 116.342 129.716C116.667 129.296 117.15 128.876 117.791 128.457C117.434 128.005 117.168 127.603 116.994 127.252C116.82 126.896 116.733 126.531 116.733 126.157C116.733 125.386 116.955 124.793 117.399 124.378C117.848 123.958 118.464 123.748 119.247 123.748C119.97 123.748 120.558 123.956 121.011 124.371C121.465 124.786 121.691 125.286 121.691 125.87C121.691 126.317 121.57 126.705 121.327 127.033C121.089 127.357 120.734 127.69 120.263 128.032L119.514 128.58L121.849 131.379C122.037 131.082 122.183 130.754 122.289 130.393C122.394 130.033 122.447 129.652 122.447 129.25H123.655C123.655 129.848 123.566 130.402 123.387 130.913C123.209 131.424 122.95 131.883 122.611 132.289L123.882 133.822L123.868 133.856H122.295L121.712 133.158C121.346 133.432 120.94 133.642 120.496 133.788C120.052 133.929 119.592 134 119.116 134C118.123 134 117.331 133.738 116.74 133.213C116.154 132.688 115.861 132.008 115.861 131.174ZM119.116 132.946C119.446 132.946 119.771 132.891 120.091 132.782C120.412 132.668 120.714 132.506 120.998 132.296L118.519 129.319L118.244 129.517C117.828 129.828 117.551 130.124 117.413 130.407C117.28 130.69 117.214 130.945 117.214 131.174C117.214 131.689 117.377 132.113 117.702 132.446C118.027 132.78 118.498 132.946 119.116 132.946ZM118.086 126.143C118.086 126.385 118.148 126.638 118.272 126.903C118.395 127.163 118.581 127.448 118.828 127.759L119.775 127.108C120.036 126.935 120.213 126.748 120.304 126.547C120.4 126.342 120.448 126.116 120.448 125.87C120.448 125.591 120.336 125.345 120.112 125.131C119.892 124.916 119.604 124.809 119.247 124.809C118.876 124.809 118.59 124.939 118.388 125.199C118.187 125.455 118.086 125.769 118.086 126.143Z" fill="#363330"/>
<path d="M135.439 126.835H134.415L134.161 125.411C133.955 125.238 133.681 125.094 133.337 124.98C132.994 124.866 132.596 124.809 132.142 124.809C131.424 124.809 130.872 124.962 130.488 125.267C130.103 125.569 129.911 125.963 129.911 126.451C129.911 126.885 130.105 127.248 130.494 127.54C130.888 127.827 131.522 128.08 132.397 128.299C133.449 128.559 134.248 128.943 134.793 129.449C135.342 129.955 135.617 130.583 135.617 131.331C135.617 132.134 135.287 132.78 134.628 133.268C133.974 133.756 133.115 134 132.053 134C131.284 134 130.6 133.875 130 133.624C129.405 133.373 128.92 133.044 128.544 132.638V130.783H129.561L129.821 132.214C130.082 132.428 130.394 132.604 130.755 132.741C131.117 132.878 131.55 132.946 132.053 132.946C132.735 132.946 133.273 132.802 133.667 132.515C134.065 132.227 134.264 131.837 134.264 131.345C134.264 130.888 134.093 130.507 133.749 130.202C133.406 129.891 132.799 129.631 131.93 129.422C130.872 129.171 130.046 128.801 129.451 128.313C128.856 127.825 128.558 127.211 128.558 126.472C128.558 125.692 128.89 125.044 129.554 124.528C130.217 124.008 131.08 123.748 132.142 123.748C132.843 123.748 133.479 123.869 134.051 124.111C134.628 124.348 135.091 124.638 135.439 124.98V126.835Z" fill="#363330"/>
<path d="M136.709 132.994L137.828 132.802V124.241L136.709 124.049V123.18H139.181V127.437C139.437 127.081 139.751 126.805 140.122 126.609C140.492 126.413 140.904 126.315 141.358 126.315C142.154 126.315 142.772 126.552 143.212 127.026C143.651 127.501 143.871 128.231 143.871 129.216V132.802L144.99 132.994V133.856H141.399V132.994L142.518 132.802V129.203C142.518 128.591 142.385 128.14 142.12 127.848C141.859 127.556 141.468 127.41 140.946 127.41C140.575 127.41 140.236 127.498 139.929 127.676C139.627 127.85 139.378 128.087 139.181 128.388V132.802L140.3 132.994V133.856H136.709V132.994Z" fill="#363330"/>
<path d="M150.82 133.856C150.779 133.656 150.747 133.475 150.724 133.316C150.701 133.156 150.685 132.996 150.676 132.837C150.415 133.17 150.088 133.448 149.694 133.671C149.305 133.89 148.888 134 148.444 134C147.671 134 147.082 133.813 146.679 133.439C146.277 133.06 146.075 132.529 146.075 131.844C146.075 131.142 146.359 130.601 146.927 130.222C147.499 129.839 148.282 129.647 149.275 129.647H150.669V128.785C150.669 128.352 150.532 128.009 150.257 127.759C149.982 127.503 149.6 127.375 149.11 127.375C148.772 127.375 148.472 127.419 148.211 127.505C147.954 127.592 147.746 127.711 147.586 127.861L147.442 128.641H146.398V127.204C146.737 126.935 147.146 126.721 147.627 126.561C148.108 126.397 148.63 126.315 149.193 126.315C150.035 126.315 150.717 126.529 151.239 126.958C151.761 127.387 152.022 128 152.022 128.799V132.364C152.022 132.46 152.022 132.554 152.022 132.645C152.026 132.736 152.033 132.827 152.042 132.919L152.592 132.994V133.856H150.82ZM148.643 132.871C149.092 132.871 149.502 132.764 149.872 132.549C150.243 132.335 150.509 132.077 150.669 131.776V130.558H149.227C148.673 130.558 148.234 130.685 147.909 130.941C147.588 131.196 147.428 131.507 147.428 131.872C147.428 132.196 147.529 132.444 147.73 132.618C147.931 132.786 148.236 132.871 148.643 132.871Z" fill="#363330"/>
<path d="M156.156 127.321L155.263 127.457L156.794 131.673L156.918 132.207H156.959L157.089 131.673L158.573 127.457L157.673 127.321V126.451H160.543V127.321L159.932 127.423L157.44 133.856H156.417L153.896 127.423L153.285 127.321V126.451H156.156V127.321Z" fill="#363330"/>
<path d="M164.76 134C163.725 134 162.901 133.658 162.288 132.973C161.679 132.285 161.374 131.393 161.374 130.298V129.996C161.374 128.943 161.688 128.067 162.315 127.368C162.947 126.666 163.693 126.315 164.554 126.315C165.552 126.315 166.307 126.616 166.82 127.218C167.337 127.82 167.596 128.623 167.596 129.627V130.469H162.775L162.755 130.503C162.768 131.215 162.949 131.801 163.297 132.262C163.645 132.718 164.133 132.946 164.76 132.946C165.217 132.946 165.618 132.882 165.961 132.754C166.309 132.622 166.609 132.442 166.861 132.214L167.39 133.09C167.124 133.345 166.772 133.562 166.332 133.74C165.897 133.913 165.373 134 164.76 134ZM164.554 127.375C164.1 127.375 163.714 127.567 163.393 127.95C163.073 128.329 162.876 128.806 162.803 129.381L162.816 129.415H166.243V129.237C166.243 128.708 166.101 128.265 165.817 127.909C165.533 127.553 165.112 127.375 164.554 127.375Z" fill="#363330"/>
<path d="M174.62 128.778H173.604L173.384 127.889C173.22 127.733 173.011 127.61 172.759 127.519C172.512 127.423 172.231 127.375 171.915 127.375C171.434 127.375 171.077 127.48 170.844 127.69C170.61 127.9 170.493 128.153 170.493 128.45C170.493 128.742 170.596 128.972 170.802 129.141C171.008 129.31 171.427 129.46 172.059 129.593C172.998 129.793 173.696 130.067 174.153 130.414C174.611 130.756 174.84 131.217 174.84 131.796C174.84 132.453 174.572 132.985 174.037 133.391C173.506 133.797 172.81 134 171.949 134C171.386 134 170.88 133.936 170.432 133.808C169.983 133.676 169.582 133.487 169.23 133.24L169.223 131.55H170.239L170.493 132.542C170.649 132.684 170.86 132.786 171.125 132.85C171.395 132.914 171.67 132.946 171.949 132.946C172.43 132.946 172.805 132.85 173.075 132.659C173.35 132.462 173.487 132.207 173.487 131.892C173.487 131.596 173.373 131.351 173.144 131.16C172.92 130.968 172.492 130.802 171.86 130.66C170.958 130.464 170.278 130.197 169.821 129.86C169.363 129.522 169.134 129.066 169.134 128.491C169.134 127.889 169.39 127.375 169.903 126.951C170.42 126.527 171.091 126.315 171.915 126.315C172.478 126.315 172.984 126.388 173.432 126.534C173.881 126.68 174.254 126.883 174.552 127.143L174.62 128.778Z" fill="#363330"/>
<path d="M83.1406 9.10207L83.8822 8.99942L87.3774 0H88.5379L91.9713 8.99942L92.706 9.10207V9.96438H89.8357V9.10207L90.5911 8.97204L89.9319 7.13794H85.9285L85.2487 8.97204L86.0041 9.10207V9.96438H83.1406V9.10207ZM86.3474 6.00874H89.5199L87.968 1.73145H87.9268L86.3474 6.00874Z" fill="#363330"/>
<path d="M95.46 3.42872L94.6085 3.57928L95.5768 7.26801L95.7347 8.16453H95.7759L95.9682 7.26801L97.4514 2.55957H98.5363L100.027 7.26801L100.239 8.26719H100.281L100.48 7.26801L101.393 3.57928L100.528 3.42872V2.55957H103.357V3.42872L102.711 3.52453L100.837 9.96442H99.7449L98.3029 5.45444L97.9939 4.20889L97.9527 4.21574L97.6643 5.45444L96.2497 9.96442H95.1579L93.2833 3.52453L92.6309 3.42872V2.55957H95.46V3.42872Z" fill="#363330"/>
<path d="M107.848 10.108C106.813 10.108 105.989 9.76586 105.376 9.08149C104.767 8.39256 104.462 7.50061 104.462 6.40562V6.1045C104.462 5.05057 104.776 4.17459 105.403 3.47653C106.035 2.77392 106.781 2.42261 107.642 2.42261C108.64 2.42261 109.395 2.72373 109.908 3.32597C110.425 3.92821 110.684 4.7312 110.684 5.73494V6.57671H105.863L105.843 6.61093C105.856 7.32267 106.037 7.90895 106.385 8.36975C106.733 8.826 107.221 9.05412 107.848 9.05412C108.306 9.05412 108.706 8.99025 109.049 8.8625C109.397 8.73019 109.697 8.54997 109.949 8.32185L110.478 9.19784C110.212 9.45333 109.86 9.67005 109.42 9.84798C108.985 10.0213 108.461 10.108 107.848 10.108ZM107.642 3.48338C107.189 3.48338 106.802 3.675 106.481 4.05824C106.161 4.43693 105.964 4.9137 105.891 5.48857L105.905 5.52279H109.331V5.34485C109.331 4.81561 109.189 4.37305 108.905 4.01718C108.621 3.66131 108.2 3.48338 107.642 3.48338Z" fill="#363330"/>
<path d="M117.708 4.88633H116.692L116.472 3.99665C116.308 3.84153 116.099 3.71834 115.848 3.62709C115.6 3.53128 115.319 3.48338 115.003 3.48338C114.522 3.48338 114.165 3.58831 113.932 3.79818C113.698 4.00806 113.582 4.26127 113.582 4.55783C113.582 4.84983 113.685 5.08023 113.891 5.24904C114.097 5.41785 114.515 5.56841 115.147 5.70072C116.086 5.90147 116.784 6.17522 117.242 6.52196C117.699 6.86415 117.928 7.32495 117.928 7.90438C117.928 8.56138 117.66 9.0929 117.125 9.49896C116.594 9.90501 115.898 10.108 115.037 10.108C114.474 10.108 113.968 10.0441 113.52 9.91642C113.071 9.78411 112.671 9.59477 112.318 9.3484L112.311 7.65801H113.327L113.582 8.65034C113.737 8.79178 113.948 8.89443 114.213 8.95831C114.483 9.02218 114.758 9.05412 115.037 9.05412C115.518 9.05412 115.893 8.95831 116.163 8.76669C116.438 8.5705 116.575 8.315 116.575 8.0002C116.575 7.70364 116.461 7.45955 116.232 7.26792C116.008 7.0763 115.58 6.90977 114.948 6.76833C114.046 6.57215 113.366 6.30525 112.909 5.96763C112.451 5.63001 112.222 5.17376 112.222 4.59889C112.222 3.99665 112.478 3.48338 112.991 3.05907C113.508 2.63476 114.179 2.42261 115.003 2.42261C115.566 2.42261 116.072 2.49561 116.521 2.6416C116.969 2.7876 117.342 2.99063 117.64 3.25069L117.708 4.88633Z" fill="#363330"/>
<path d="M119.199 6.19347C119.199 5.09848 119.496 4.1974 120.091 3.49022C120.686 2.77848 121.494 2.42261 122.515 2.42261C123.541 2.42261 124.351 2.7762 124.946 3.48338C125.546 4.19055 125.846 5.09392 125.846 6.19347V6.34403C125.846 7.44814 125.548 8.3515 124.953 9.05412C124.358 9.75674 123.55 10.108 122.529 10.108C121.499 10.108 120.686 9.75674 120.091 9.05412C119.496 8.34694 119.199 7.44358 119.199 6.34403V6.19347ZM120.551 6.34403C120.551 7.12877 120.716 7.77663 121.046 8.28763C121.38 8.79862 121.874 9.05412 122.529 9.05412C123.17 9.05412 123.657 8.79862 123.992 8.28763C124.326 7.77663 124.493 7.12877 124.493 6.34403V6.19347C124.493 5.41785 124.326 4.77227 123.992 4.25671C123.657 3.74115 123.165 3.48338 122.515 3.48338C121.865 3.48338 121.375 3.74115 121.046 4.25671C120.716 4.77227 120.551 5.41785 120.551 6.19347V6.34403Z" fill="#363330"/>
<path d="M126.821 9.10202L127.94 8.9104V3.62025L126.821 3.42863V2.55948H129.155L129.245 3.52444C129.483 3.17313 129.789 2.90166 130.165 2.71004C130.54 2.51842 130.975 2.42261 131.47 2.42261C131.964 2.42261 132.387 2.53667 132.74 2.76479C133.097 2.99291 133.365 3.3351 133.543 3.79134C133.777 3.3716 134.086 3.03854 134.47 2.79217C134.855 2.54579 135.303 2.42261 135.816 2.42261C136.576 2.42261 137.176 2.68267 137.615 3.20279C138.055 3.71834 138.275 4.49624 138.275 5.53648V8.9104L139.394 9.10202V9.96433H135.796V9.10202L136.915 8.9104V5.52279C136.915 4.7928 136.789 4.27724 136.537 3.97612C136.285 3.67044 135.912 3.51759 135.418 3.51759C134.946 3.51759 134.566 3.68412 134.278 4.01718C133.994 4.34568 133.829 4.76086 133.784 5.26273V8.9104L134.903 9.10202V9.96433H131.312V9.10202L132.431 8.9104V5.52279C132.431 4.8293 132.3 4.32287 132.039 4.00349C131.783 3.67956 131.41 3.51759 130.92 3.51759C130.508 3.51759 130.169 3.602 129.904 3.77081C129.638 3.93962 129.435 4.17687 129.293 4.48255V8.9104L130.412 9.10202V9.96433H126.821V9.10202Z" fill="#363330"/>
<path d="M143.706 10.108C142.672 10.108 141.848 9.76586 141.234 9.08149C140.625 8.39256 140.321 7.50061 140.321 6.40562V6.1045C140.321 5.05057 140.634 4.17459 141.262 3.47653C141.893 2.77392 142.64 2.42261 143.5 2.42261C144.498 2.42261 145.253 2.72373 145.766 3.32597C146.283 3.92821 146.542 4.7312 146.542 5.73494V6.57671H141.722L141.701 6.61093C141.715 7.32267 141.896 7.90895 142.244 8.36975C142.591 8.826 143.079 9.05412 143.706 9.05412C144.164 9.05412 144.564 8.99025 144.908 8.8625C145.256 8.73019 145.556 8.54997 145.807 8.32185L146.336 9.19784C146.071 9.45333 145.718 9.67005 145.279 9.84798C144.844 10.0213 144.32 10.108 143.706 10.108ZM143.5 3.48338C143.047 3.48338 142.66 3.675 142.34 4.05824C142.019 4.43693 141.822 4.9137 141.749 5.48857L141.763 5.52279H145.189V5.34485C145.189 4.81561 145.047 4.37305 144.764 4.01718C144.48 3.66131 144.059 3.48338 143.5 3.48338Z" fill="#363330"/>
<path d="M230.033 106.073H0V108.075H230.033V106.073Z" fill="#FF9000"/>
<path d="M230.033 25.9824H0V27.9847H230.033V25.9824Z" fill="#FF9000"/>
<path d="M53.2792 64.8022V78.8741C53.2792 80.0701 53.0355 81.21 52.5479 82.2939C52.0979 83.3404 51.4791 84.2561 50.6916 85.041C49.9041 85.8259 48.9665 86.4426 47.879 86.8911C46.8289 87.377 45.7039 87.6199 44.5038 87.6199C43.3037 87.6199 42.1787 87.3957 41.1286 86.9472C40.0786 86.4987 39.1598 85.9007 38.3722 85.1532C37.5847 84.3683 36.9472 83.4713 36.4597 82.4621C36.0096 81.4156 35.7659 80.2943 35.7284 79.0983V68.7266C35.6159 67.568 35.0908 66.727 34.1533 66.2038C34.6783 65.9421 35.2033 65.8113 35.7284 65.8113V52.5804C35.7659 51.3844 36.0096 50.2631 36.4597 49.2166C36.9472 48.1701 37.5847 47.2731 38.3722 46.5255C39.1598 45.7407 40.0786 45.124 41.1286 44.6755C42.1787 44.2269 43.3037 44.0027 44.5038 44.0027C45.7039 44.0027 46.8289 44.2456 47.879 44.7315C48.9665 45.18 49.9041 45.7967 50.6916 46.5816C51.4791 47.3665 52.0979 48.3009 52.5479 49.3848C53.0355 50.4313 53.2792 51.5712 53.2792 52.8046C53.2792 53.44 53.3355 53.9072 53.448 54.2062C53.598 54.5052 53.748 54.7482 53.898 54.935C54.048 55.1219 54.1793 55.2901 54.2918 55.4396C54.4418 55.5891 54.5168 55.832 54.5168 56.1684H51.5916C50.9916 56.0937 50.6916 55.776 50.6916 55.2154C50.6916 55.776 50.3916 56.0937 49.7915 56.1684H46.8102C46.8102 55.832 46.8664 55.5891 46.9789 55.4396C47.1289 55.2901 47.2789 55.1219 47.4289 54.935C47.5789 54.7482 47.7102 54.5052 47.8227 54.2062C47.9727 53.9072 48.0477 53.4213 48.0477 52.7486V52.6925C48.0477 52.2066 48.029 51.6273 47.9915 50.9545C47.954 50.2444 47.8227 49.5716 47.5977 48.9363C47.3727 48.3009 47.0164 47.7589 46.5289 47.3104C46.0414 46.8619 45.3663 46.6377 44.5038 46.6377C43.6038 46.6377 42.91 46.8806 42.4224 47.3665C41.9724 47.815 41.6349 48.3569 41.4099 48.9923C41.1849 49.6277 41.0536 50.3005 41.0161 51.0106C40.9786 51.7207 40.9599 52.3187 40.9599 52.8046V65.8113C41.4849 65.8113 42.0099 65.9421 42.5349 66.2038C41.5974 66.727 41.0724 67.568 40.9599 68.7266V78.8741C40.9599 79.36 40.9786 79.958 41.0161 80.6681C41.0536 81.3409 41.1849 82.0136 41.4099 82.6864C41.6349 83.3218 41.9724 83.8637 42.4224 84.3122C42.91 84.7607 43.6038 84.985 44.5038 84.985C45.4038 84.985 46.0789 84.7607 46.5289 84.3122C47.0164 83.8637 47.3727 83.3218 47.5977 82.6864C47.8227 82.0136 47.954 81.3409 47.9915 80.6681C48.029 79.958 48.0477 79.36 48.0477 78.8741V67.3811C47.6352 67.4185 47.2789 67.5867 46.9789 67.8857C46.7164 68.1847 46.5851 68.5397 46.5851 68.9509V69.0069C46.5476 69.5676 46.3976 70.0534 46.1351 70.4646C45.9101 70.8383 45.5726 71.1747 45.1226 71.4737C44.6726 71.7353 44.0163 71.8662 43.1537 71.8662V64.8022H53.2792ZM38.766 63.1763C38.766 62.9521 38.7473 62.7278 38.7098 62.5036C38.7098 62.2793 38.7098 62.0738 38.7098 61.8869V60.5974C38.6723 59.7752 38.6535 58.9903 38.6535 58.2428C38.6535 57.4953 38.6348 56.7851 38.5973 56.1124C38.5598 55.776 38.541 55.477 38.541 55.2154C38.541 54.9163 38.5223 54.6173 38.4848 54.3183C38.4848 54.0567 38.466 53.8138 38.4285 53.5895C38.4285 53.3279 38.4285 53.1036 38.4285 52.9168C38.4285 52.7299 38.4098 52.5617 38.3722 52.4122C38.3722 52.2627 38.3722 52.1319 38.3722 52.0197V51.7394C38.3347 51.7394 38.316 51.7581 38.316 51.7955V52.0197C38.316 52.1319 38.2972 52.2627 38.2597 52.4122C38.2597 52.5617 38.2597 52.7299 38.2597 52.9168C38.2597 53.1036 38.241 53.3279 38.2035 53.5895C38.2035 53.8138 38.2035 54.0567 38.2035 54.3183C38.166 54.6173 38.1472 54.9163 38.1472 55.2154C38.1472 55.477 38.1285 55.776 38.091 56.1124C38.0535 56.7851 38.0347 57.4953 38.0347 58.2428C38.0347 58.9903 38.016 59.7752 37.9785 60.5974V61.8869C37.9785 62.0738 37.9597 62.2793 37.9222 62.5036C37.9222 62.7278 37.9222 62.9521 37.9222 63.1763V68.3902C37.9222 68.5024 37.9222 68.6145 37.9222 68.7266C37.9597 68.8387 37.9785 68.9322 37.9785 69.0069V70.9131C37.9785 71.3242 37.9785 71.7353 37.9785 72.1465C38.016 72.5202 38.0347 72.894 38.0347 73.2677C38.0347 73.6789 38.0347 74.0713 38.0347 74.4451C38.0722 74.7814 38.091 75.0991 38.091 75.3981C38.1285 75.7345 38.1472 76.0522 38.1472 76.3512C38.1472 76.6502 38.166 76.9305 38.2035 77.1922C38.2035 77.4912 38.2035 77.7528 38.2035 77.9771C38.241 78.2013 38.2597 78.4069 38.2597 78.5937C38.2597 78.7806 38.2597 78.9488 38.2597 79.0983C38.2972 79.2478 38.316 79.3786 38.316 79.4908V79.7711C38.316 79.8085 38.3347 79.8271 38.3722 79.8271V79.4908C38.3722 79.3786 38.3722 79.2478 38.3722 79.0983C38.4098 78.9488 38.4285 78.7806 38.4285 78.5937C38.4285 78.4069 38.4285 78.2013 38.4285 77.9771C38.466 77.7528 38.4848 77.4912 38.4848 77.1922C38.5223 76.9305 38.541 76.6502 38.541 76.3512C38.541 76.0522 38.5598 75.7345 38.5973 75.3981C38.5973 75.0991 38.5973 74.7814 38.5973 74.4451C38.6348 74.0713 38.6535 73.6789 38.6535 73.2677C38.6535 72.894 38.6535 72.5202 38.6535 72.1465C38.691 71.7353 38.7098 71.3242 38.7098 70.9131V69.6797C38.7098 69.3807 38.7285 69.1564 38.766 69.0069V63.1763ZM51.0291 71.3055C50.9916 70.9318 50.9729 70.5954 50.9729 70.2964C50.9729 69.96 50.9541 69.6423 50.9166 69.3433C50.8791 68.7827 50.8228 68.3155 50.7478 67.9417C50.7478 67.867 50.7291 67.7922 50.6916 67.7175C50.6916 67.6427 50.6916 67.5867 50.6916 67.5493V67.3811L50.6353 67.4372V67.5493C50.6353 67.5867 50.6166 67.6427 50.5791 67.7175C50.5791 67.7922 50.5791 67.867 50.5791 67.9417C50.5041 68.3155 50.4478 68.7827 50.4103 69.3433C50.3728 69.6423 50.3541 69.96 50.3541 70.2964C50.3541 70.5954 50.3353 70.9318 50.2978 71.3055V71.8662C50.2978 71.9783 50.2791 72.0904 50.2416 72.2025C50.2416 72.2773 50.2416 72.352 50.2416 72.4268V74.7814C50.2416 74.8936 50.2603 74.987 50.2978 75.0618V75.9027C50.2978 76.0896 50.2978 76.2578 50.2978 76.4073C50.3353 76.5568 50.3541 76.725 50.3541 76.9118C50.3541 77.0987 50.3541 77.2669 50.3541 77.4164C50.3916 77.5659 50.4103 77.7154 50.4103 77.8649C50.4478 78.0144 50.4666 78.1639 50.4666 78.3134C50.4666 78.4256 50.4853 78.5377 50.5228 78.6498C50.5228 78.7619 50.5228 78.8741 50.5228 78.9862C50.5603 79.0983 50.5791 79.1918 50.5791 79.2665C50.5791 79.3413 50.5791 79.416 50.5791 79.4908C50.6166 79.5655 50.6353 79.6216 50.6353 79.6589V79.7711C50.6353 79.8085 50.6541 79.8271 50.6916 79.8271V79.6589C50.6916 79.6216 50.6916 79.5655 50.6916 79.4908C50.7291 79.416 50.7478 79.3413 50.7478 79.2665C50.7478 79.1918 50.7478 79.0983 50.7478 78.9862C50.7853 78.8741 50.8041 78.7619 50.8041 78.6498C50.8416 78.5377 50.8603 78.4256 50.8603 78.3134C50.8603 78.1639 50.8791 78.0144 50.9166 77.8649C50.9166 77.7154 50.9166 77.5659 50.9166 77.4164C50.9541 77.2669 50.9729 77.0987 50.9729 76.9118C50.9729 76.725 50.9729 76.5568 50.9729 76.4073C51.0104 76.2578 51.0291 76.0896 51.0291 75.9027V75.3421C51.0291 75.1926 51.0479 75.0991 51.0854 75.0618V72.4268C51.0854 72.352 51.0666 72.2773 51.0291 72.2025C51.0291 72.0904 51.0291 71.9783 51.0291 71.8662V71.3055Z" fill="black"/>
<path d="M73.7149 65.8675C74.3524 65.8675 74.8774 65.9983 75.2899 66.2599C74.8774 66.5216 74.5212 66.8766 74.2211 67.3251C73.9586 67.7736 73.7899 68.2595 73.7149 68.7828V77.2483C73.6774 78.4444 73.4148 79.5656 72.9273 80.6121C72.4773 81.6213 71.8585 82.5183 71.071 83.3032C70.2835 84.0507 69.3647 84.6487 68.3146 85.0972C67.2646 85.5457 66.1395 85.77 64.9394 85.77C63.7394 85.77 62.6143 85.5457 61.5643 85.0972C60.5142 84.6487 59.5954 84.0507 58.8079 83.3032C58.0204 82.5183 57.3828 81.6213 56.8953 80.6121C56.4453 79.5656 56.2015 78.4444 56.164 77.2483V68.7828C56.0515 67.6241 55.5265 66.7832 54.5889 66.2599C55.0015 65.9983 55.5265 65.8675 56.164 65.8675V55.0473C56.2015 53.8886 56.4453 52.786 56.8953 51.7395C57.3828 50.693 58.0204 49.796 58.8079 49.0485C59.5954 48.2636 60.5142 47.6469 61.5643 47.1984C62.6143 46.7499 63.7394 46.5256 64.9394 46.5256C66.1395 46.5256 67.2646 46.7499 68.3146 47.1984C69.3647 47.6469 70.2835 48.2636 71.071 49.0485C71.8585 49.796 72.4773 50.693 72.9273 51.7395C73.4148 52.786 73.6774 53.8886 73.7149 55.0473V65.8675ZM59.2017 63.8492C59.2017 63.6623 59.1829 63.4941 59.1454 63.3446C59.1454 63.1578 59.1454 62.9709 59.1454 62.784V61.7188C59.1079 61.0087 59.0892 60.3359 59.0892 59.7005C59.0892 59.0651 59.0704 58.4671 59.0329 57.9065C58.9954 57.6449 58.9767 57.3832 58.9767 57.1216C58.9767 56.86 58.9579 56.617 58.9204 56.3928C58.9204 56.1685 58.9017 55.963 58.8642 55.7761C58.8642 55.5892 58.8642 55.421 58.8642 55.2715C58.8642 55.0846 58.8454 54.9351 58.8079 54.823C58.8079 54.6735 58.8079 54.5614 58.8079 54.4866V54.2063C58.7704 54.2063 58.7516 54.225 58.7516 54.2624V54.4866C58.7516 54.5614 58.7329 54.6735 58.6954 54.823C58.6954 54.9351 58.6954 55.0846 58.6954 55.2715C58.6954 55.421 58.6766 55.5892 58.6391 55.7761C58.6391 55.963 58.6391 56.1685 58.6391 56.3928C58.6016 56.617 58.5829 56.86 58.5829 57.1216C58.5829 57.3832 58.5641 57.6449 58.5266 57.9065C58.4891 58.4671 58.4704 59.0651 58.4704 59.7005C58.4704 60.3359 58.4516 61.0087 58.4141 61.7188V62.784C58.4141 62.9709 58.3954 63.1578 58.3579 63.3446C58.3579 63.4941 58.3579 63.6623 58.3579 63.8492V68.2782C58.3579 68.5398 58.3766 68.7267 58.4141 68.8388V70.4647C58.4141 70.8011 58.4141 71.1374 58.4141 71.4738C58.4516 71.8102 58.4704 72.1279 58.4704 72.4269C58.4704 72.7633 58.4704 73.081 58.4704 73.38C58.5079 73.6416 58.5266 73.9219 58.5266 74.2209C58.5641 74.5199 58.5829 74.8002 58.5829 75.0619C58.5829 75.2861 58.6016 75.5104 58.6391 75.7346C58.6391 75.9589 58.6391 76.1644 58.6391 76.3513C58.6766 76.5382 58.6954 76.7251 58.6954 76.9119C58.6954 77.0988 58.6954 77.267 58.6954 77.4165C58.7329 77.5286 58.7516 77.6221 58.7516 77.6968V77.865C58.7516 77.9024 58.7704 77.9211 58.8079 77.9211V77.6968C58.8079 77.6221 58.8079 77.5286 58.8079 77.4165C58.8454 77.267 58.8642 77.0988 58.8642 76.9119C58.8642 76.7251 58.8642 76.5382 58.8642 76.3513C58.9017 76.1644 58.9204 75.9589 58.9204 75.7346C58.9579 75.5104 58.9767 75.2861 58.9767 75.0619C58.9767 74.8002 58.9954 74.5199 59.0329 74.2209C59.0329 73.9219 59.0329 73.6416 59.0329 73.38C59.0704 73.081 59.0892 72.7633 59.0892 72.4269C59.0892 72.1279 59.0892 71.8102 59.0892 71.4738C59.1267 71.1374 59.1454 70.8011 59.1454 70.4647V68.8388C59.1829 68.7267 59.2017 68.5398 59.2017 68.2782V63.8492ZM68.4834 55.2715C68.4834 54.7856 68.4646 54.1876 68.4271 53.4775C68.3896 52.7674 68.2584 52.0946 68.0333 51.4592C67.8083 50.8238 67.4521 50.2819 66.9645 49.8334C66.5145 49.3475 65.8395 49.1046 64.9394 49.1046C64.0394 49.1046 63.3456 49.3475 62.8581 49.8334C62.4081 50.2819 62.0706 50.8238 61.8455 51.4592C61.6205 52.0946 61.4893 52.7674 61.4518 53.4775C61.4143 54.1876 61.3955 54.7856 61.3955 55.2715V65.8675C62.0331 65.8675 62.5581 65.9983 62.9706 66.2599C62.0331 66.7832 61.508 67.6241 61.3955 68.7828V77.0241C61.3955 77.51 61.4143 78.108 61.4518 78.8181C61.4893 79.4909 61.6205 80.1636 61.8455 80.8364C62.0706 81.4718 62.4081 82.0137 62.8581 82.4622C63.3456 82.9107 64.0394 83.135 64.9394 83.135C65.8395 83.135 66.5145 82.9107 66.9645 82.4622C67.4521 82.0137 67.8083 81.4718 68.0333 80.8364C68.2584 80.1636 68.3896 79.4909 68.4271 78.8181C68.4646 78.108 68.4834 77.51 68.4834 77.0241V68.7828C68.4084 67.6615 67.8833 66.8206 66.9083 66.2599C67.3208 65.9983 67.8458 65.8675 68.4834 65.8675V55.2715ZM71.521 63.8492C71.521 63.6623 71.521 63.4941 71.521 63.3446C71.521 63.1578 71.5023 62.9709 71.4648 62.784V61.7188C71.4648 61.0087 71.446 60.3359 71.4085 59.7005C71.4085 59.0651 71.3898 58.4671 71.3522 57.9065C71.3147 57.6449 71.296 57.3832 71.296 57.1216C71.296 56.86 71.2772 56.617 71.2397 56.3928C71.2397 56.1685 71.221 55.963 71.1835 55.7761C71.1835 55.5892 71.1835 55.421 71.1835 55.2715C71.1835 55.0846 71.1647 54.9351 71.1272 54.823C71.1272 54.6735 71.1272 54.5614 71.1272 54.4866V54.2063C71.0897 54.2063 71.071 54.225 71.071 54.2624V54.4866C71.071 54.5614 71.071 54.6735 71.071 54.823C71.071 54.9351 71.0522 55.0846 71.0147 55.2715C71.0147 55.421 70.996 55.5892 70.9585 55.7761C70.9585 55.963 70.9585 56.1685 70.9585 56.3928C70.921 56.617 70.9022 56.86 70.9022 57.1216C70.9022 57.3832 70.8835 57.6449 70.846 57.9065C70.8085 58.4671 70.7897 59.0651 70.7897 59.7005C70.7897 60.3359 70.771 61.0087 70.7335 61.7188V63.8492C70.696 64.223 70.6772 64.5967 70.6772 64.9705C70.6772 65.3442 70.6772 65.718 70.6772 66.0917C70.6772 66.4655 70.6772 66.8392 70.6772 67.213C70.6772 67.5494 70.696 67.9044 70.7335 68.2782V70.4647C70.7335 70.8011 70.7335 71.1374 70.7335 71.4738C70.771 71.8102 70.7897 72.1279 70.7897 72.4269C70.7897 72.7633 70.7897 73.081 70.7897 73.38C70.8272 73.6416 70.846 73.9219 70.846 74.2209C70.8835 74.5199 70.9022 74.8002 70.9022 75.0619C70.9022 75.2861 70.921 75.5104 70.9585 75.7346C70.9585 75.9589 70.9585 76.1644 70.9585 76.3513C70.996 76.5382 71.0147 76.7251 71.0147 76.9119C71.0522 77.0988 71.071 77.267 71.071 77.4165C71.071 77.5286 71.071 77.6221 71.071 77.6968V77.865C71.071 77.9024 71.0897 77.9211 71.1272 77.9211V77.6968C71.1272 77.6221 71.1272 77.5286 71.1272 77.4165C71.1647 77.267 71.1835 77.0988 71.1835 76.9119C71.1835 76.7251 71.1835 76.5382 71.1835 76.3513C71.221 76.1644 71.2397 75.9589 71.2397 75.7346C71.2772 75.5104 71.296 75.2861 71.296 75.0619C71.296 74.8002 71.3147 74.5199 71.3522 74.2209C71.3522 73.9219 71.3522 73.6416 71.3522 73.38C71.3898 73.081 71.4085 72.7633 71.4085 72.4269C71.4085 72.1279 71.4085 71.8102 71.4085 71.4738C71.446 71.1374 71.4648 70.8011 71.4648 70.4647V69.3995C71.4648 69.3247 71.4648 69.2313 71.4648 69.1192C71.5023 69.007 71.521 68.9136 71.521 68.8388V63.8492Z" fill="black"/>
<path d="M94.5898 58.6352C94.5898 60.3171 94.1773 61.8308 93.3522 63.1763C92.5272 64.5219 91.4209 65.5684 90.0333 66.3159C90.7084 66.8391 91.3271 67.4558 91.8897 68.166C92.4522 68.8387 92.921 69.5862 93.296 70.4085C93.7085 71.2308 94.0273 72.0717 94.2523 72.9314C94.4773 73.791 94.5898 74.6319 94.5898 75.4542V79.0423C94.5523 80.2383 94.3085 81.3595 93.8585 82.4061C93.4085 83.4152 92.7897 84.3122 92.0022 85.0971C91.2146 85.8446 90.2958 86.4426 89.2458 86.8911C88.1957 87.377 87.0707 87.6199 85.8706 87.6199H80.5829C80.3204 87.6199 80.0953 87.5265 79.9078 87.3396C79.7578 87.1527 79.6828 86.9285 79.6828 86.6669C79.6828 86.9285 79.5891 87.1527 79.4016 87.3396C79.214 87.5265 79.0078 87.6199 78.7828 87.6199H75.8014C75.8014 87.2836 75.8576 87.0406 75.9701 86.8911C76.1202 86.7416 76.2702 86.5734 76.4202 86.3866C76.5702 86.237 76.7014 86.0128 76.8139 85.7138C76.9639 85.4148 77.0389 84.9476 77.0389 84.3122V68.6705C76.9264 67.5493 76.4014 66.727 75.4639 66.2038C75.9514 65.9048 76.4764 65.7553 77.0389 65.7553V47.3104C77.0389 46.675 76.9639 46.2079 76.8139 45.9088C76.7014 45.6098 76.5702 45.3856 76.4202 45.2361C76.2702 45.0492 76.1202 44.881 75.9701 44.7315C75.8576 44.582 75.8014 44.3391 75.8014 44.0027H78.7828C79.0078 44.0027 79.214 44.0961 79.4016 44.283C79.5891 44.4325 79.6828 44.6381 79.6828 44.8997C79.6828 44.3017 79.9828 44.0027 80.5829 44.0027H85.8706C87.0707 44.0027 88.1957 44.2269 89.2458 44.6755C90.2958 45.124 91.2146 45.7407 92.0022 46.5255C92.7897 47.2731 93.4085 48.1701 93.8585 49.2166C94.3085 50.2631 94.5523 51.3657 94.5898 52.5243V58.6352ZM80.0766 62.7839C80.0766 62.5223 80.0578 62.2793 80.0203 62.0551C80.0203 61.7934 80.0203 61.5505 80.0203 61.3263V59.8686C79.9828 58.8968 79.9641 57.9811 79.9641 57.1215C79.9641 56.2619 79.9453 55.4583 79.9078 54.7108C79.8703 54.2997 79.8516 53.9259 79.8516 53.5895C79.8516 53.2531 79.8328 52.9354 79.7953 52.6364C79.7953 52.3374 79.7766 52.0571 79.7391 51.7955C79.7391 51.4965 79.7391 51.2535 79.7391 51.0667C79.7391 50.8424 79.7203 50.6369 79.6828 50.45C79.6828 50.2631 79.6828 50.1136 79.6828 50.0015V49.6651C79.6453 49.7025 79.6266 49.7398 79.6266 49.7772V50.0015C79.6266 50.1136 79.6078 50.2631 79.5703 50.45C79.5703 50.6369 79.5703 50.8424 79.5703 51.0667C79.5703 51.2535 79.5516 51.4965 79.5141 51.7955C79.5141 52.0571 79.5141 52.3374 79.5141 52.6364C79.4766 52.9354 79.4578 53.2531 79.4578 53.5895C79.4578 53.9259 79.4391 54.2997 79.4016 54.7108C79.3641 55.4583 79.3453 56.2619 79.3453 57.1215C79.3453 57.9811 79.3266 58.8968 79.2891 59.8686V61.3263C79.2891 61.5505 79.2891 61.7934 79.2891 62.0551C79.2891 62.2793 79.2703 62.5223 79.2328 62.7839V68.7827C79.2328 68.9322 79.2328 69.063 79.2328 69.1751C79.2703 69.2872 79.2891 69.4181 79.2891 69.5676V71.698C79.2891 72.1838 79.2891 72.6697 79.2891 73.1556C79.3266 73.6041 79.3453 74.0339 79.3453 74.4451C79.3453 74.8562 79.3453 75.2673 79.3453 75.6785C79.3828 76.0896 79.4016 76.5007 79.4016 76.9118C79.4391 77.0987 79.4578 77.2856 79.4578 77.4725C79.4578 77.622 79.4578 77.7902 79.4578 77.9771C79.4578 78.1639 79.4578 78.3321 79.4578 78.4816C79.4953 78.6311 79.5141 78.7806 79.5141 78.9301C79.5141 79.2291 79.5141 79.5281 79.5141 79.8271C79.5516 80.0888 79.5703 80.3317 79.5703 80.556C79.5703 80.7802 79.5703 80.9858 79.5703 81.1727C79.6078 81.3222 79.6266 81.453 79.6266 81.5651V81.8454C79.6266 81.8828 79.6453 81.9202 79.6828 81.9575V81.5651C79.6828 81.453 79.6828 81.3222 79.6828 81.1727C79.7203 80.9858 79.7391 80.7802 79.7391 80.556C79.7391 80.3317 79.7391 80.0888 79.7391 79.8271C79.7766 79.5281 79.7953 79.2291 79.7953 78.9301C79.8328 78.7806 79.8516 78.6311 79.8516 78.4816C79.8516 78.3321 79.8516 78.1639 79.8516 77.9771C79.8516 77.7902 79.8516 77.622 79.8516 77.4725C79.8891 77.2856 79.9078 77.0987 79.9078 76.9118C79.9078 76.5007 79.9078 76.0896 79.9078 75.6785C79.9453 75.2673 79.9641 74.8562 79.9641 74.4451C79.9641 74.0339 79.9641 73.6041 79.9641 73.1556C80.0016 72.6697 80.0203 72.1838 80.0203 71.698V70.2964C80.0203 69.96 80.0391 69.7171 80.0766 69.5676V62.7839ZM91.6646 77.921C91.6271 78.0331 91.6084 78.22 91.6084 78.4816V79.4908C91.6084 79.6776 91.5896 79.8458 91.5521 79.9953C91.5521 80.1448 91.5521 80.2943 91.5521 80.4438C91.5521 80.5933 91.5334 80.7242 91.4959 80.8363C91.4959 80.9484 91.4959 81.0605 91.4959 81.1727V81.3409C91.4584 81.3782 91.4396 81.4343 91.4396 81.509V81.7894C91.4021 81.8267 91.3834 81.8641 91.3834 81.9015V82.0136C91.3834 82.051 91.3646 82.0884 91.3271 82.1257C91.3271 82.1257 91.3271 82.1444 91.3271 82.1818C91.3271 82.2192 91.3084 82.2566 91.2709 82.2939H91.3271C91.3271 82.2939 91.3459 82.2566 91.3834 82.1818C91.3834 82.1818 91.4021 82.1444 91.4396 82.0697C91.4771 82.0323 91.4959 81.9949 91.4959 81.9575C91.5334 81.9202 91.5521 81.8828 91.5521 81.8454C91.5896 81.808 91.6084 81.7707 91.6084 81.7333C91.6459 81.6959 91.6646 81.6399 91.6646 81.5651C91.7397 81.4904 91.7772 81.3969 91.7772 81.2848C91.8522 81.1353 91.9272 80.8737 92.0022 80.4999C92.0772 80.2756 92.1147 80.1261 92.1147 80.0514C92.1522 79.9766 92.1709 79.9019 92.1709 79.8271C92.1709 79.715 92.1897 79.6216 92.2272 79.5468C92.2272 79.4721 92.2272 79.3973 92.2272 79.3226C92.2647 79.2104 92.2834 79.117 92.2834 79.0423C92.3209 78.9301 92.3397 78.7619 92.3397 78.5377C92.3772 78.3508 92.3959 78.1639 92.3959 77.9771C92.3959 77.7902 92.4147 77.6033 92.4522 77.4164V75.0618C92.4522 74.8749 92.4334 74.688 92.3959 74.5011C92.3959 74.3143 92.3772 74.1274 92.3397 73.9405C92.3397 73.7162 92.3209 73.5481 92.2834 73.4359C92.2834 73.3612 92.2647 73.2864 92.2272 73.2117C92.2272 73.0995 92.2272 73.0061 92.2272 72.9314C92.1897 72.8566 92.1709 72.7819 92.1709 72.7071C92.1709 72.595 92.1522 72.5015 92.1147 72.4268C92.1147 72.352 92.0959 72.2773 92.0584 72.2025C92.0584 72.1278 92.0584 72.053 92.0584 71.9783C91.9834 71.754 91.9459 71.6232 91.9459 71.5858C91.9084 71.4737 91.8522 71.3429 91.7772 71.1934C91.7772 71.0813 91.7397 70.9878 91.6646 70.9131C91.6646 70.801 91.6271 70.7075 91.5521 70.6328C91.4771 70.4833 91.4209 70.3711 91.3834 70.2964C91.3459 70.259 91.3271 70.2216 91.3271 70.1843H91.2709C91.2709 70.1843 91.2896 70.2216 91.3271 70.2964C91.3271 70.3338 91.3271 70.3711 91.3271 70.4085C91.3646 70.4085 91.3834 70.4272 91.3834 70.4646C91.3834 70.5393 91.4021 70.6141 91.4396 70.6888V70.9691C91.4771 71.0439 91.4959 71.1373 91.4959 71.2495C91.4959 71.4363 91.5146 71.5672 91.5521 71.6419V72.0343C91.5896 72.1838 91.6084 72.3333 91.6084 72.4829C91.6084 72.6324 91.6084 72.8005 91.6084 72.9874V73.492C91.6084 73.5667 91.6084 73.6602 91.6084 73.7723C91.6459 73.8471 91.6646 73.9218 91.6646 73.9966V77.921ZM89.3583 75.4542C89.3583 74.9683 89.3395 74.2769 89.302 73.3799C89.2645 72.4829 89.1333 71.5858 88.9083 70.6888C88.6833 69.7918 88.327 69.0256 87.8395 68.3902C87.3894 67.7175 86.7144 67.3811 85.8144 67.3811H83.7893C83.3768 67.3811 83.0205 67.5306 82.7205 67.8296C82.4205 68.1286 82.2704 68.4837 82.2704 68.8948V83.4713C82.2704 83.8824 82.4205 84.2375 82.7205 84.5365C83.0205 84.7981 83.3768 84.9476 83.7893 84.985H85.8144C86.7144 84.985 87.3894 84.7607 87.8395 84.3122C88.327 83.8263 88.6833 83.2657 88.9083 82.6303C89.1333 81.9949 89.2645 81.3222 89.302 80.612C89.3395 79.9019 89.3583 79.3039 89.3583 78.818V75.4542ZM89.3583 52.7486C89.3583 52.2627 89.3395 51.6834 89.302 51.0106C89.2645 50.3005 89.1333 49.6277 88.9083 48.9923C88.6833 48.3569 88.327 47.815 87.8395 47.3665C87.3894 46.8806 86.7144 46.6377 85.8144 46.6377H83.7893C83.3768 46.6377 83.0205 46.7872 82.7205 47.0862C82.4205 47.3852 82.2704 47.7402 82.2704 48.1514V63.2324C82.2704 63.6435 82.4205 63.9986 82.7205 64.2976C83.0205 64.5966 83.3768 64.7461 83.7893 64.7461H85.8144C86.7144 64.7461 87.3894 64.5219 87.8395 64.0734C88.327 63.6249 88.6833 63.0829 88.9083 62.4475C89.1333 61.7748 89.2645 61.102 89.302 60.4292C89.3395 59.7191 89.3583 59.1211 89.3583 58.6352V52.7486ZM91.8897 60.1489C91.9647 59.9247 92.0022 59.7752 92.0022 59.7004C92.0772 59.5509 92.1147 59.4014 92.1147 59.2519C92.1522 59.1772 92.1709 59.1024 92.1709 59.0277C92.1709 58.9155 92.1897 58.8221 92.2272 58.7473C92.2272 58.6726 92.2272 58.5978 92.2272 58.5231C92.2647 58.411 92.2834 58.2988 92.2834 58.1867C92.3209 58.0746 92.3397 57.8877 92.3397 57.6261C92.3772 57.4392 92.3959 57.2523 92.3959 57.0654C92.3959 56.8786 92.4147 56.6917 92.4522 56.5048V55.2714C92.4522 54.8603 92.4522 54.4678 92.4522 54.0941C92.4522 53.683 92.4334 53.2905 92.3959 52.9168C92.3584 52.8046 92.3397 52.7112 92.3397 52.6364C92.3397 52.5243 92.3209 52.4309 92.2834 52.3561C92.2834 52.0945 92.2647 51.9076 92.2272 51.7955C92.1897 51.6086 92.1522 51.4404 92.1147 51.2909C92.1147 51.1414 92.0959 50.9919 92.0584 50.8424C91.9834 50.6182 91.9459 50.4687 91.9459 50.3939C91.8709 50.2444 91.8334 50.1323 91.8334 50.0575C91.7584 49.908 91.7022 49.7959 91.6646 49.7212C91.6646 49.609 91.6271 49.5156 91.5521 49.4408C91.5146 49.3287 91.4584 49.1979 91.3834 49.0484L91.2709 48.9363V48.9923C91.2709 49.0297 91.2709 49.0484 91.2709 49.0484C91.3084 49.0484 91.3271 49.0671 91.3271 49.1045C91.3646 49.1418 91.3834 49.1979 91.3834 49.2726C91.3834 49.3474 91.4021 49.4221 91.4396 49.4969V49.7772C91.4771 49.852 91.4959 49.9641 91.4959 50.1136C91.4959 50.1883 91.4959 50.2631 91.4959 50.3378C91.5334 50.3752 91.5521 50.4313 91.5521 50.506V50.8985C91.5896 51.048 91.6084 51.1975 91.6084 51.347C91.6084 51.4965 91.6084 51.6647 91.6084 51.8516V52.4122C91.6084 52.4869 91.6084 52.5804 91.6084 52.6925C91.6459 52.7673 91.6646 52.842 91.6646 52.9168V57.0654C91.6271 57.1776 91.6084 57.3644 91.6084 57.6261V58.6913C91.6084 58.8782 91.5896 59.0463 91.5521 59.1958C91.5521 59.3454 91.5521 59.4949 91.5521 59.6444C91.5521 59.7939 91.5334 59.9434 91.4959 60.0929C91.4959 60.205 91.4959 60.3171 91.4959 60.4292C91.4959 60.6161 91.4771 60.7282 91.4396 60.7656V61.102C91.4021 61.102 91.3834 61.1394 91.3834 61.2141V61.3263C91.3834 61.3636 91.3646 61.401 91.3271 61.4384C91.3271 61.4384 91.3271 61.4571 91.3271 61.4944C91.3271 61.5318 91.3084 61.5692 91.2709 61.6066L91.3834 61.4944C91.3834 61.4571 91.3834 61.4384 91.3834 61.4384C91.4209 61.401 91.4396 61.3636 91.4396 61.3263C91.4771 61.3263 91.4959 61.2889 91.4959 61.2141C91.5334 61.2141 91.5521 61.1768 91.5521 61.102C91.5896 61.102 91.6084 61.0646 91.6084 60.9899C91.6459 60.9525 91.6646 60.8964 91.6646 60.8217C91.7397 60.7469 91.7772 60.6535 91.7772 60.5414C91.8522 60.3171 91.8897 60.1863 91.8897 60.1489Z" fill="black"/>
<path d="M115.867 82.4062C116.017 83.0415 116.186 83.5087 116.373 83.8077C116.561 84.1067 116.748 84.3497 116.936 84.5366C117.123 84.7234 117.292 84.8916 117.442 85.0411C117.592 85.1906 117.705 85.4336 117.78 85.77H114.798C114.536 85.77 114.292 85.6765 114.067 85.4896C113.879 85.3028 113.767 85.0785 113.729 84.8169C113.767 85.0785 113.711 85.3028 113.561 85.4896C113.411 85.6765 113.223 85.77 112.998 85.77H110.017C109.942 85.4336 109.961 85.1906 110.073 85.0411C110.186 84.8916 110.298 84.7421 110.411 84.5926C110.523 84.4057 110.617 84.1628 110.692 83.8638C110.767 83.5274 110.748 83.0229 110.636 82.3501V82.294L109.398 75.9589C109.323 75.5851 109.117 75.2674 108.779 75.0058C108.442 74.7068 108.067 74.5573 107.654 74.5573H103.773C103.36 74.5573 102.985 74.7068 102.648 75.0058C102.31 75.2674 102.104 75.5851 102.029 75.9589L100.848 82.294V82.3501C100.735 83.0229 100.698 83.5274 100.735 83.8638C100.81 84.1628 100.904 84.4057 101.016 84.5926C101.166 84.7421 101.279 84.8916 101.354 85.0411C101.466 85.1906 101.504 85.4336 101.466 85.77H98.4845C98.222 85.77 98.0158 85.6765 97.8658 85.4896C97.7158 85.3028 97.6595 85.0785 97.697 84.8169C97.6595 85.0785 97.547 85.3028 97.3595 85.4896C97.172 85.6765 96.947 85.77 96.6845 85.77H93.7031C93.7406 85.4336 93.8343 85.1906 93.9843 85.0411C94.1343 84.8916 94.3031 84.7234 94.4906 84.5366C94.6781 84.3497 94.8656 84.1067 95.0531 83.8077C95.2406 83.5087 95.4094 83.0415 95.5594 82.4062L98.0908 68.7828C98.1658 68.2595 98.1095 67.7736 97.922 67.3251C97.7345 66.8766 97.4345 66.5216 97.022 66.2599C97.622 65.9983 98.1658 65.8675 98.6533 65.8675L101.691 49.8894C101.804 49.2541 101.823 48.7869 101.748 48.4879C101.673 48.1515 101.579 47.9085 101.466 47.759C101.354 47.5722 101.241 47.404 101.129 47.2545C101.016 47.105 100.998 46.862 101.073 46.5256H104.841C105.404 46.6004 105.685 46.9181 105.685 47.4787C105.685 47.2171 105.76 47.0115 105.91 46.862C106.098 46.6751 106.304 46.563 106.529 46.5256H110.354C110.429 46.862 110.411 47.105 110.298 47.2545C110.223 47.404 110.129 47.5722 110.017 47.759C109.904 47.9085 109.81 48.1515 109.735 48.4879C109.66 48.7869 109.679 49.2541 109.792 49.8894L112.773 65.8675C113.073 65.8675 113.354 65.9049 113.617 65.9796C113.879 66.0544 114.142 66.1478 114.404 66.2599C113.579 66.7832 113.223 67.6241 113.336 68.7828L115.867 82.4062ZM102.366 62.3355C102.441 62.1112 102.479 61.9057 102.479 61.7188C102.516 61.4945 102.554 61.289 102.591 61.1021C102.779 60.2425 102.929 59.4389 103.041 58.6914C103.154 57.9065 103.266 57.1964 103.379 56.561C103.454 56.262 103.491 55.963 103.491 55.664C103.529 55.365 103.566 55.066 103.604 54.7669C103.641 54.5053 103.679 54.2624 103.716 54.0381C103.754 53.8139 103.791 53.6083 103.829 53.4214C103.866 53.2346 103.885 53.0664 103.885 52.9169C103.885 52.73 103.904 52.5805 103.941 52.4684V52.2441L103.885 52.4684C103.848 52.5805 103.81 52.7113 103.773 52.8608C103.735 53.0103 103.698 53.1785 103.66 53.3654C103.585 53.5522 103.529 53.7765 103.491 54.0381C103.454 54.2624 103.398 54.4866 103.323 54.7109C103.248 55.0099 103.173 55.3089 103.098 55.6079C103.06 55.9069 103.004 56.2059 102.929 56.5049C102.741 57.1403 102.554 57.8317 102.366 58.5793C102.216 59.2894 102.048 60.0743 101.86 60.9339C101.86 61.1582 101.841 61.3637 101.804 61.5506C101.766 61.7375 101.71 61.9431 101.635 62.1673C101.598 62.3916 101.56 62.6158 101.523 62.8401C101.485 63.0269 101.448 63.2325 101.41 63.4568C101.298 63.8679 101.185 64.2977 101.073 64.7462C100.998 65.1947 100.923 65.6432 100.848 66.0917C100.773 66.5029 100.679 66.9327 100.566 67.3812C100.491 67.8297 100.416 68.2595 100.341 68.6706C100.304 68.7828 100.285 68.8949 100.285 69.007C100.285 69.0818 100.266 69.1752 100.229 69.2873C100.154 69.5863 100.116 69.8106 100.116 69.9601C100.004 70.3339 99.9284 70.745 99.8909 71.1935C99.8159 71.6046 99.7409 72.0158 99.6659 72.4269C99.5908 72.838 99.5346 73.2118 99.4971 73.5482C99.3846 74.4078 99.2721 75.1179 99.1596 75.6786C99.0846 75.9776 99.0283 76.2766 98.9908 76.5756C98.9533 76.8746 98.9158 77.1736 98.8783 77.4726C98.8033 77.7342 98.7471 77.9958 98.7096 78.2575C98.7096 78.4817 98.6908 78.6873 98.6533 78.8742C98.6158 79.061 98.5971 79.2292 98.5971 79.3787C98.5971 79.5282 98.5783 79.6591 98.5408 79.7712C98.5408 79.8459 98.5221 79.902 98.4845 79.9394C98.4845 79.9394 98.4845 79.9581 98.4845 79.9954V80.0515C98.5221 80.0515 98.5408 80.0328 98.5408 79.9954C98.5408 79.9207 98.5596 79.8459 98.5971 79.7712C98.6346 79.6964 98.6533 79.5843 98.6533 79.4348C98.6908 79.2479 98.7471 79.061 98.8221 78.8742C98.8971 78.6873 98.9533 78.4817 98.9908 78.2575C99.0658 78.0332 99.1408 77.7903 99.2158 77.5286C99.2908 77.267 99.3471 76.9867 99.3846 76.6877C99.4596 76.3887 99.5158 76.0897 99.5533 75.7907C99.6283 75.4917 99.7034 75.174 99.7784 74.8376C99.8909 74.4639 99.9846 74.0901 100.06 73.7163C100.135 73.3426 100.21 72.9501 100.285 72.539C100.398 72.1279 100.51 71.7168 100.623 71.3056C100.66 71.1187 100.698 70.9319 100.735 70.745C100.773 70.5207 100.81 70.3152 100.848 70.1283L101.016 69.4555C101.054 69.3434 101.073 69.2313 101.073 69.1192C101.073 69.007 101.091 68.8949 101.129 68.7828C101.204 68.3716 101.298 67.9605 101.41 67.5494C101.523 67.1009 101.616 66.6524 101.691 66.2039C101.766 65.7927 101.841 65.3629 101.916 64.9144C101.991 64.4659 102.066 64.0361 102.141 63.6249C102.179 63.4007 102.216 63.1764 102.254 62.9522C102.291 62.7279 102.329 62.5224 102.366 62.3355ZM107.148 71.9223C107.56 71.8849 107.879 71.7354 108.104 71.4738C108.367 71.1748 108.46 70.8197 108.385 70.4086L108.048 68.7828C107.898 68.2595 107.635 67.7736 107.26 67.3251C106.923 66.8766 106.51 66.5216 106.023 66.2599C106.473 65.9983 106.96 65.8675 107.485 65.8675L105.685 56.2807L103.885 65.8675C104.373 65.8675 104.879 65.9983 105.404 66.2599C104.879 66.5216 104.429 66.8766 104.054 67.3251C103.716 67.7736 103.491 68.2595 103.379 68.7828L103.098 70.4086C103.023 70.8197 103.098 71.1748 103.323 71.4738C103.548 71.7354 103.848 71.8849 104.223 71.9223H107.148ZM112.829 79.7712C112.829 79.8459 112.829 79.902 112.829 79.9394C112.867 79.9394 112.886 79.9581 112.886 79.9954V79.7712C112.848 79.6591 112.829 79.5282 112.829 79.3787C112.829 79.2292 112.811 79.061 112.773 78.8742C112.736 78.6873 112.698 78.4817 112.661 78.2575C112.661 77.9958 112.623 77.7342 112.548 77.4726C112.511 77.1736 112.473 76.8746 112.436 76.5756C112.398 76.2766 112.342 75.9776 112.267 75.6786C112.154 75.1179 112.042 74.4078 111.929 73.5482C111.854 73.2118 111.779 72.838 111.704 72.4269C111.667 72.0158 111.611 71.6046 111.536 71.1935C111.461 70.9692 111.404 70.7637 111.367 70.5768C111.367 70.3899 111.329 70.1844 111.254 69.9601C111.254 69.8106 111.217 69.5863 111.142 69.2873C111.142 69.1752 111.123 69.0818 111.086 69.007C111.086 68.8949 111.086 68.7828 111.086 68.6706C111.011 68.2595 110.917 67.8297 110.804 67.3812C110.729 66.9327 110.654 66.5029 110.579 66.0917C110.504 65.6432 110.411 65.1947 110.298 64.7462C110.223 64.2977 110.129 63.8679 110.017 63.4568C109.979 63.2325 109.942 63.0269 109.904 62.8401C109.867 62.6158 109.829 62.3916 109.792 62.1673C109.717 61.9431 109.66 61.7375 109.623 61.5506C109.585 61.3637 109.548 61.1582 109.51 60.9339C109.323 60.0743 109.135 59.2894 108.948 58.5793C108.798 57.8317 108.667 57.1403 108.554 56.5049C108.479 56.2059 108.404 55.9069 108.329 55.6079C108.254 55.3089 108.179 55.0099 108.104 54.7109C108.029 54.4866 107.954 54.2624 107.879 54.0381C107.842 53.7765 107.785 53.5522 107.71 53.3654C107.673 53.1785 107.635 53.0103 107.598 52.8608C107.56 52.7113 107.523 52.5805 107.485 52.4684L107.429 52.2441V52.4684C107.467 52.6552 107.523 52.9729 107.598 53.4214C107.598 53.6083 107.617 53.8139 107.654 54.0381C107.692 54.2624 107.729 54.5053 107.767 54.7669C107.804 55.066 107.842 55.365 107.879 55.664C107.917 55.963 107.973 56.262 108.048 56.561C108.16 57.1964 108.273 57.9065 108.385 58.6914C108.498 59.4389 108.629 60.2425 108.779 61.1021C108.817 61.289 108.835 61.4945 108.835 61.7188C108.873 61.9057 108.929 62.1112 109.004 62.3355C109.042 62.5224 109.079 62.7279 109.117 62.9522C109.154 63.1764 109.192 63.4007 109.229 63.6249C109.304 64.0361 109.379 64.4659 109.454 64.9144C109.567 65.3629 109.66 65.7927 109.735 66.2039C109.81 66.6524 109.904 67.1009 110.017 67.5494C110.129 67.9605 110.223 68.3716 110.298 68.7828C110.336 68.8949 110.354 69.007 110.354 69.1192C110.354 69.2313 110.373 69.3434 110.411 69.4555L110.579 70.1283C110.617 70.3152 110.654 70.5207 110.692 70.745C110.729 70.9319 110.767 71.1187 110.804 71.3056C110.917 71.7168 111.011 72.1279 111.086 72.539C111.161 72.9501 111.236 73.3426 111.311 73.7163C111.386 74.0901 111.461 74.4639 111.536 74.8376C111.648 75.174 111.742 75.4917 111.817 75.7907C111.892 76.0897 111.967 76.3887 112.042 76.6877C112.117 76.9867 112.192 77.267 112.267 77.5286C112.379 78.0519 112.492 78.5004 112.604 78.8742C112.679 79.061 112.717 79.2479 112.717 79.4348C112.754 79.5843 112.792 79.6964 112.829 79.7712Z" fill="#0D0D0D"/>
<path d="M139.469 88.1246C139.882 88.1994 140.163 88.3302 140.313 88.5171C140.5 88.7039 140.632 88.8908 140.707 89.0777C140.782 89.3019 140.819 89.5449 140.819 89.8065C139.619 89.8065 138.494 89.657 137.444 89.358C136.394 89.059 135.456 88.5731 134.631 87.9004C133.844 87.2276 133.206 86.3493 132.719 85.2654C132.269 84.1815 132.044 82.8547 132.044 81.2849V73.6042C132.044 73.1183 132.025 72.5203 131.987 71.8102C131.95 71.1001 131.819 70.4273 131.594 69.7919C131.369 69.1565 131.012 68.6146 130.525 68.1661C130.075 67.6802 129.4 67.4373 128.5 67.4373H126.193C125.856 67.512 125.556 67.6989 125.293 67.9979C125.068 68.2595 124.956 68.5772 124.956 68.951V82.3501C124.956 83.0229 125.012 83.5274 125.125 83.8638C125.275 84.1628 125.425 84.4057 125.575 84.5926C125.725 84.7421 125.856 84.8916 125.968 85.0411C126.118 85.1906 126.193 85.4336 126.193 85.77H123.212C122.987 85.77 122.781 85.6765 122.593 85.4896C122.406 85.3028 122.312 85.0972 122.312 84.8729C122.312 85.0972 122.218 85.3028 122.031 85.4896C121.881 85.6765 121.674 85.77 121.412 85.77H118.487C118.487 85.4336 118.543 85.1906 118.655 85.0411C118.805 84.8916 118.956 84.7421 119.106 84.5926C119.256 84.4057 119.387 84.1628 119.499 83.8638C119.649 83.5648 119.724 83.0976 119.724 82.4622V68.7828C119.612 67.6241 119.087 66.7832 118.149 66.2599C118.562 65.9983 119.087 65.8675 119.724 65.8675V49.8334C119.724 49.198 119.649 48.7308 119.499 48.4318C119.387 48.1328 119.256 47.9085 119.106 47.759C118.956 47.5722 118.805 47.404 118.655 47.2545C118.543 47.105 118.487 46.862 118.487 46.5256H121.468C121.693 46.5256 121.899 46.6191 122.087 46.806C122.274 46.9555 122.368 47.161 122.368 47.4227C122.368 46.8246 122.668 46.5256 123.268 46.5256H128.556C129.756 46.5256 130.881 46.7499 131.931 47.1984C132.981 47.6469 133.9 48.2636 134.688 49.0485C135.475 49.796 136.094 50.693 136.544 51.7395C136.994 52.786 137.238 53.8886 137.275 55.0473V58.6914C137.275 60.2612 136.9 61.7001 136.15 63.0083C135.4 64.3164 134.388 65.3629 133.112 66.1478C134.388 66.8953 135.4 67.9418 136.15 69.2873C136.9 70.5955 137.275 72.0344 137.275 73.6042V81.0606C137.275 81.8455 137.275 82.6491 137.275 83.4714C137.313 84.2562 137.406 84.9851 137.556 85.6578C137.706 86.2932 137.931 86.8352 138.231 87.2837C138.531 87.7322 138.944 88.0125 139.469 88.1246ZM134.35 57.7383C134.312 57.8131 134.294 57.9065 134.294 58.0186V59.3081C134.256 59.4576 134.237 59.6071 134.237 59.7566C134.237 59.8687 134.237 59.9808 134.237 60.093C134.237 60.1677 134.219 60.2238 134.181 60.2612C134.181 60.2985 134.181 60.3546 134.181 60.4293V60.7657C134.144 60.8405 134.125 60.9339 134.125 61.046C134.125 61.1208 134.106 61.1955 134.069 61.2703C134.069 61.345 134.05 61.4011 134.012 61.4385V61.5506L133.956 61.6627C133.956 61.6627 133.994 61.644 134.069 61.6067V61.5506L134.125 61.4945C134.162 61.4572 134.181 61.4385 134.181 61.4385C134.181 61.4011 134.2 61.3637 134.237 61.3264C134.275 61.2516 134.312 61.1769 134.35 61.1021C134.387 60.99 134.425 60.8965 134.463 60.8218C134.5 60.747 134.519 60.7097 134.519 60.7097C134.519 60.6723 134.537 60.6162 134.575 60.5415C134.613 60.4667 134.631 60.4107 134.631 60.3733C134.631 60.2985 134.65 60.2238 134.688 60.149C134.725 60.0743 134.744 60.0182 134.744 59.9808C134.744 59.9435 134.763 59.8874 134.8 59.8126C134.8 59.7379 134.8 59.6818 134.8 59.6445C134.838 59.5697 134.856 59.495 134.856 59.4202C134.894 59.2707 134.913 59.1212 134.913 58.9717C134.95 58.8222 134.988 58.6727 135.025 58.5232C135.063 58.4111 135.081 58.2429 135.081 58.0186C135.081 57.9439 135.081 57.8691 135.081 57.7944C135.119 57.7196 135.138 57.6449 135.138 57.5701V55.6079C135.138 55.3836 135.119 55.2155 135.081 55.1033V54.8791C135.081 54.8043 135.063 54.7669 135.025 54.7669C135.025 54.7296 135.025 54.6735 135.025 54.5988C135.025 54.4119 134.988 54.1316 134.913 53.7578C134.875 53.6831 134.856 53.6083 134.856 53.5336C134.856 53.4588 134.838 53.3841 134.8 53.3093C134.8 53.2719 134.781 53.2532 134.744 53.2532C134.744 53.2159 134.744 53.1785 134.744 53.1411C134.744 53.1037 134.725 53.0851 134.688 53.0851C134.688 53.0477 134.688 53.0103 134.688 52.9729C134.65 52.8982 134.631 52.8421 134.631 52.8047C134.631 52.7674 134.613 52.7113 134.575 52.6365C134.537 52.5618 134.519 52.5057 134.519 52.4684C134.519 52.431 134.5 52.3749 134.463 52.3002C134.425 52.2628 134.406 52.2254 134.406 52.188C134.406 52.1507 134.387 52.1133 134.35 52.0759C134.275 51.9264 134.237 51.8517 134.237 51.8517C134.2 51.8143 134.181 51.7956 134.181 51.7956C134.181 51.7582 134.162 51.7208 134.125 51.6835C134.087 51.6461 134.069 51.6087 134.069 51.5713C134.031 51.534 134.012 51.4966 134.012 51.4592H133.956C133.956 51.4592 133.975 51.4966 134.012 51.5713V51.6835C134.05 51.7208 134.069 51.7956 134.069 51.9077C134.069 51.9451 134.069 51.9825 134.069 52.0198C134.106 52.0198 134.125 52.0572 134.125 52.132C134.125 52.2441 134.144 52.3375 134.181 52.4123V52.6926C134.181 52.7674 134.181 52.8234 134.181 52.8608C134.219 52.8982 134.237 52.9542 134.237 53.029C134.237 53.3654 134.256 53.627 134.294 53.8139V54.7109C134.331 54.8978 134.35 55.1968 134.35 55.6079V57.7383ZM122.762 63.5128C122.762 63.3259 122.743 63.1204 122.706 62.8961C122.706 62.6719 122.706 62.4476 122.706 62.2234V60.99C122.668 60.1677 122.649 59.3828 122.649 58.6353C122.649 57.8878 122.631 57.1777 122.593 56.5049C122.556 56.2059 122.537 55.9069 122.537 55.6079C122.537 55.3089 122.518 55.0286 122.481 54.7669C122.481 54.4679 122.462 54.2063 122.424 53.9821C122.424 53.7578 122.424 53.5522 122.424 53.3654C122.424 53.1785 122.406 53.0103 122.368 52.8608C122.368 52.7113 122.368 52.5805 122.368 52.4684V52.188C122.331 52.188 122.312 52.2067 122.312 52.2441V52.4684C122.312 52.5805 122.293 52.7113 122.256 52.8608C122.256 53.0103 122.256 53.1785 122.256 53.3654C122.256 53.5522 122.237 53.7578 122.199 53.9821C122.199 54.2063 122.199 54.4679 122.199 54.7669C122.162 55.0286 122.143 55.3089 122.143 55.6079C122.143 55.9069 122.124 56.2059 122.087 56.5049C122.049 57.1777 122.031 57.8878 122.031 58.6353C122.031 59.3828 122.012 60.1677 121.974 60.99V62.2234C121.974 62.4476 121.956 62.6719 121.918 62.8961C121.918 63.1204 121.918 63.3259 121.918 63.5128V68.7267C121.918 69.0257 121.937 69.25 121.974 69.3995V71.2496C121.974 71.6607 121.974 72.0718 121.974 72.483C122.012 72.8567 122.031 73.2305 122.031 73.6042C122.031 74.0153 122.031 74.3891 122.031 74.7255C122.068 75.0619 122.087 75.3982 122.087 75.7346C122.124 76.071 122.143 76.3887 122.143 76.6877C122.143 76.9493 122.162 77.2296 122.199 77.5286C122.199 77.7903 122.199 78.0332 122.199 78.2575C122.237 78.4817 122.256 78.6873 122.256 78.8742C122.256 79.061 122.256 79.2479 122.256 79.4348C122.293 79.5843 122.312 79.6964 122.312 79.7712V80.0515C122.312 80.0889 122.331 80.1076 122.368 80.1076V79.7712C122.368 79.6964 122.368 79.5843 122.368 79.4348C122.406 79.2479 122.424 79.061 122.424 78.8742C122.424 78.6873 122.424 78.4817 122.424 78.2575C122.462 78.0332 122.481 77.7903 122.481 77.5286C122.518 77.2296 122.537 76.9493 122.537 76.6877C122.537 76.3887 122.556 76.071 122.593 75.7346C122.593 75.3982 122.593 75.0619 122.593 74.7255C122.631 74.3891 122.649 74.0153 122.649 73.6042C122.649 73.2305 122.649 72.8567 122.649 72.483C122.687 72.0718 122.706 71.6607 122.706 71.2496V70.0162C122.706 69.7172 122.724 69.5116 122.762 69.3995V63.5128ZM132.044 55.2715C132.044 54.7856 132.025 54.1876 131.987 53.4775C131.95 52.7674 131.819 52.0946 131.594 51.4592C131.369 50.8238 131.012 50.2819 130.525 49.8334C130.075 49.3475 129.4 49.1046 128.5 49.1046H126.475C126.062 49.1419 125.706 49.3101 125.406 49.6091C125.106 49.9081 124.956 50.2632 124.956 50.6743V63.2886C124.956 63.6997 125.106 64.0548 125.406 64.3538C125.706 64.6528 126.062 64.8023 126.475 64.8023H128.5C129.4 64.8023 130.075 64.578 130.525 64.1295C131.012 63.681 131.369 63.1391 131.594 62.5037C131.819 61.8309 131.95 61.1582 131.987 60.4854C132.025 59.7753 132.044 59.1773 132.044 58.6914V55.2715ZM135.813 85.9942C135.813 85.9942 135.794 85.9755 135.756 85.9381L135.7 85.8821C135.663 85.8073 135.625 85.7326 135.588 85.6578C135.588 85.5831 135.55 85.5083 135.475 85.4336C135.438 85.3214 135.4 85.2093 135.363 85.0972C135.325 84.9477 135.288 84.7795 135.25 84.5926C135.175 84.2189 135.138 83.8638 135.138 83.5274C135.1 83.3405 135.081 83.1537 135.081 82.9668C135.081 82.7425 135.081 82.4996 135.081 82.238V79.2666C135.081 79.005 135.081 78.7434 135.081 78.4817C135.081 78.2201 135.1 77.9398 135.138 77.6408C135.138 77.3791 135.138 77.1175 135.138 76.8559C135.138 76.5943 135.119 76.3326 135.081 76.071V75.2861C135.081 74.9124 135.063 74.6507 135.025 74.5012C135.025 74.2396 135.006 73.9967 134.969 73.7724C134.969 73.5108 134.95 73.2678 134.913 73.0436C134.838 72.5203 134.763 72.0718 134.688 71.6981C134.65 71.5112 134.613 71.343 134.575 71.1935C134.537 71.0066 134.481 70.8197 134.406 70.6329C134.331 70.446 134.275 70.2965 134.237 70.1844C134.2 70.0722 134.144 69.9601 134.069 69.848C133.994 69.7358 133.937 69.6424 133.9 69.5677C133.862 69.4929 133.825 69.4182 133.787 69.3434C133.75 69.3434 133.712 69.3247 133.675 69.2873C133.637 69.2873 133.619 69.2687 133.619 69.2313L133.675 69.2873C133.675 69.3247 133.694 69.3621 133.731 69.3995C133.731 69.4368 133.731 69.4742 133.731 69.5116C133.769 69.5116 133.787 69.549 133.787 69.6237C133.825 69.6611 133.844 69.6985 133.844 69.7358C133.844 69.7732 133.862 69.8293 133.9 69.904C133.937 70.0535 133.994 70.3152 134.069 70.6889C134.106 70.8758 134.125 71.0627 134.125 71.2496C134.162 71.4364 134.2 71.6233 134.237 71.8102C134.237 71.9971 134.237 72.2026 134.237 72.4269C134.275 72.6138 134.294 72.838 134.294 73.0996V80.0515C134.294 80.201 134.294 80.3318 134.294 80.4439C134.331 80.5561 134.35 80.6869 134.35 80.8364C134.35 81.098 134.35 81.3596 134.35 81.6213C134.387 81.8455 134.425 82.0698 134.463 82.294C134.5 82.5183 134.519 82.7425 134.519 82.9668C134.556 83.191 134.594 83.3966 134.631 83.5835C134.706 83.8077 134.763 84.0133 134.8 84.2002C134.838 84.3497 134.894 84.5179 134.969 84.7048C135.044 84.8916 135.1 85.0411 135.138 85.1533C135.175 85.2654 135.231 85.3775 135.306 85.4896L135.419 85.6018C135.456 85.6391 135.475 85.6765 135.475 85.7139C135.475 85.7139 135.494 85.7326 135.531 85.77L135.756 85.9942H135.813Z" fill="black"/>
<path d="M156.336 58.6914C156.336 60.2612 155.961 61.7001 155.211 63.0083C154.461 64.3164 153.448 65.3629 152.173 66.1478C153.448 66.8953 154.461 67.9418 155.211 69.2873C155.961 70.5955 156.336 72.0344 156.336 73.6042V77.2483C156.299 78.4444 156.055 79.5656 155.605 80.6121C155.155 81.6213 154.536 82.5183 153.748 83.3032C152.961 84.0507 152.042 84.6487 150.992 85.0972C149.942 85.5457 148.817 85.77 147.617 85.77H142.273C142.048 85.77 141.842 85.6765 141.654 85.4896C141.467 85.3028 141.373 85.0972 141.373 84.8729C141.373 85.0972 141.279 85.3028 141.092 85.4896C140.942 85.6765 140.735 85.77 140.473 85.77H137.548C137.548 85.4336 137.604 85.1906 137.716 85.0411C137.866 84.8916 138.016 84.7421 138.166 84.5926C138.316 84.4057 138.448 84.1628 138.56 83.8638C138.71 83.5648 138.785 83.0976 138.785 82.4622V68.7828C138.673 67.6241 138.148 66.7832 137.21 66.2599C137.623 65.9983 138.148 65.8675 138.785 65.8675V49.8334C138.785 49.198 138.71 48.7308 138.56 48.4318C138.448 48.1328 138.316 47.9085 138.166 47.759C138.016 47.5722 137.866 47.404 137.716 47.2545C137.604 47.105 137.548 46.862 137.548 46.5256H140.529C140.754 46.5256 140.96 46.6191 141.148 46.806C141.335 46.9555 141.429 47.161 141.429 47.4227C141.429 46.8246 141.729 46.5256 142.329 46.5256H147.617C148.817 46.5256 149.942 46.7499 150.992 47.1984C152.042 47.6469 152.961 48.2636 153.748 49.0485C154.536 49.796 155.155 50.693 155.605 51.7395C156.055 52.786 156.299 53.8886 156.336 55.0473V58.6914ZM141.823 63.5128C141.823 63.3259 141.804 63.1204 141.767 62.8961C141.767 62.6719 141.767 62.4476 141.767 62.2234V60.99C141.729 60.1677 141.71 59.3828 141.71 58.6353C141.71 57.8878 141.692 57.1777 141.654 56.5049C141.617 56.2059 141.598 55.9069 141.598 55.6079C141.598 55.3089 141.579 55.0286 141.542 54.7669C141.542 54.4679 141.523 54.2063 141.485 53.9821C141.485 53.7578 141.485 53.5522 141.485 53.3654C141.485 53.1785 141.467 53.0103 141.429 52.8608C141.429 52.7113 141.429 52.5805 141.429 52.4684V52.188C141.392 52.188 141.373 52.2067 141.373 52.2441V52.4684C141.373 52.5805 141.354 52.7113 141.317 52.8608C141.317 53.0103 141.317 53.1785 141.317 53.3654C141.317 53.5522 141.298 53.7578 141.26 53.9821C141.26 54.2063 141.26 54.4679 141.26 54.7669C141.223 55.0286 141.204 55.3089 141.204 55.6079C141.204 55.9069 141.185 56.2059 141.148 56.5049C141.11 57.1777 141.092 57.8878 141.092 58.6353C141.092 59.3828 141.073 60.1677 141.035 60.99V62.2234C141.035 62.4476 141.017 62.6719 140.979 62.8961C140.979 63.1204 140.979 63.3259 140.979 63.5128V68.7267C140.979 69.0257 140.998 69.25 141.035 69.3995V71.2496C141.035 71.6607 141.035 72.0718 141.035 72.483C141.073 72.8567 141.092 73.2305 141.092 73.6042C141.092 74.0153 141.092 74.3891 141.092 74.7255C141.129 75.0619 141.148 75.3982 141.148 75.7346C141.185 76.071 141.204 76.3887 141.204 76.6877C141.204 76.9493 141.223 77.2296 141.26 77.5286C141.26 77.7903 141.26 78.0332 141.26 78.2575C141.298 78.4817 141.317 78.6873 141.317 78.8742C141.317 79.061 141.317 79.2479 141.317 79.4348C141.354 79.5843 141.373 79.6964 141.373 79.7712V80.0515C141.373 80.0889 141.392 80.1076 141.429 80.1076V79.7712C141.429 79.6964 141.429 79.5843 141.429 79.4348C141.467 79.2479 141.485 79.061 141.485 78.8742C141.485 78.6873 141.485 78.4817 141.485 78.2575C141.523 78.0332 141.542 77.7903 141.542 77.5286C141.579 77.2296 141.598 76.9493 141.598 76.6877C141.598 76.3887 141.617 76.071 141.654 75.7346C141.654 75.3982 141.654 75.0619 141.654 74.7255C141.692 74.3891 141.71 74.0153 141.71 73.6042C141.71 73.2305 141.71 72.8567 141.71 72.483C141.748 72.0718 141.767 71.6607 141.767 71.2496V70.0162C141.767 69.7172 141.785 69.5116 141.823 69.3995V63.5128ZM153.411 76.5195C153.373 76.5943 153.355 76.6877 153.355 76.7998V78.0893C153.317 78.2388 153.298 78.3883 153.298 78.5378C153.298 78.6499 153.298 78.762 153.298 78.8742C153.298 78.9489 153.28 79.005 153.242 79.0424C153.242 79.0797 153.242 79.1358 153.242 79.2105V79.5469C153.205 79.6217 153.186 79.7151 153.186 79.8272C153.186 79.902 153.167 79.9767 153.13 80.0515C153.13 80.1262 153.111 80.1823 153.073 80.2197V80.3318L153.017 80.4439C153.017 80.4439 153.055 80.4253 153.13 80.3879V80.3318L153.186 80.2757C153.223 80.2384 153.242 80.2197 153.242 80.2197C153.242 80.1823 153.261 80.1449 153.298 80.1076C153.336 80.0328 153.373 79.9581 153.411 79.8833C153.448 79.7712 153.486 79.6777 153.523 79.603C153.561 79.5282 153.58 79.4909 153.58 79.4909C153.58 79.4535 153.598 79.3974 153.636 79.3227C153.673 79.2479 153.692 79.1919 153.692 79.1545C153.692 79.1171 153.711 79.061 153.748 78.9863C153.786 78.9115 153.805 78.8555 153.805 78.8181C153.805 78.7434 153.823 78.6686 153.861 78.5938C153.861 78.5191 153.861 78.463 153.861 78.4257C153.898 78.3509 153.917 78.2762 153.917 78.2014C153.955 78.0519 153.973 77.9024 153.973 77.7529C154.011 77.6034 154.048 77.4539 154.086 77.3044C154.123 77.1923 154.142 77.0241 154.142 76.7998C154.142 76.7251 154.142 76.6503 154.142 76.5756C154.18 76.5008 154.198 76.4261 154.198 76.3513V74.3891C154.198 74.1649 154.18 73.9967 154.142 73.8845V73.6603C154.142 73.5855 154.123 73.5482 154.086 73.5482C154.086 73.5108 154.086 73.4734 154.086 73.436C154.086 73.2492 154.067 73.0996 154.03 72.9875C154.03 72.838 154.011 72.6885 153.973 72.539C153.936 72.4643 153.917 72.3895 153.917 72.3148C153.917 72.24 153.898 72.1653 153.861 72.0905C153.861 72.0531 153.842 72.0344 153.805 72.0344C153.805 71.9971 153.805 71.9597 153.805 71.9223C153.805 71.8849 153.786 71.8663 153.748 71.8663C153.748 71.8289 153.748 71.7915 153.748 71.7541C153.711 71.6794 153.692 71.6233 153.692 71.5859C153.692 71.5486 153.673 71.4925 153.636 71.4177C153.598 71.343 153.58 71.2869 153.58 71.2496C153.58 71.2122 153.561 71.1561 153.523 71.0814C153.486 71.044 153.467 71.0066 153.467 70.9692C153.467 70.9319 153.448 70.8945 153.411 70.8571C153.336 70.7076 153.298 70.6329 153.298 70.6329C153.261 70.5955 153.242 70.5768 153.242 70.5768C153.242 70.5394 153.223 70.502 153.186 70.4647C153.148 70.4273 153.13 70.3899 153.13 70.3525L153.017 70.2404C153.017 70.2404 153.036 70.2778 153.073 70.3525V70.4647C153.111 70.502 153.13 70.5768 153.13 70.6889C153.13 70.7263 153.13 70.7637 153.13 70.8011C153.167 70.8011 153.186 70.8384 153.186 70.9132C153.186 71.0253 153.205 71.1187 153.242 71.1935V71.4738C153.242 71.5486 153.242 71.6046 153.242 71.642C153.28 71.6794 153.298 71.7354 153.298 71.8102C153.298 72.1466 153.317 72.4082 153.355 72.5951V73.4921C153.392 73.679 153.411 73.978 153.411 74.3891V76.5195ZM151.105 73.6042C151.105 73.1183 151.086 72.5203 151.048 71.8102C151.011 71.1001 150.88 70.4273 150.654 69.7919C150.429 69.1565 150.073 68.6146 149.586 68.1661C149.136 67.6802 148.461 67.4373 147.561 67.4373H145.535C145.123 67.4746 144.767 67.6428 144.467 67.9418C144.167 68.2408 144.017 68.5959 144.017 69.007V81.6213C144.017 82.0324 144.167 82.3875 144.467 82.6865C144.767 82.9855 145.123 83.135 145.535 83.135H147.561C148.461 83.135 149.136 82.9107 149.586 82.4622C150.073 82.0137 150.429 81.4718 150.654 80.8364C150.88 80.1636 151.011 79.4909 151.048 78.8181C151.086 78.108 151.105 77.51 151.105 77.0241V73.6042ZM151.105 55.2715C151.105 54.7856 151.086 54.1876 151.048 53.4775C151.011 52.7674 150.88 52.0946 150.654 51.4592C150.429 50.8238 150.073 50.2819 149.586 49.8334C149.136 49.3475 148.461 49.1046 147.561 49.1046H145.535C145.123 49.1419 144.767 49.3101 144.467 49.6091C144.167 49.9081 144.017 50.2632 144.017 50.6743V63.2886C144.017 63.6997 144.167 64.0548 144.467 64.3538C144.767 64.6528 145.123 64.8023 145.535 64.8023H147.561C148.461 64.8023 149.136 64.578 149.586 64.1295C150.073 63.681 150.429 63.1391 150.654 62.5037C150.88 61.8309 151.011 61.1582 151.048 60.4854C151.086 59.7753 151.105 59.1773 151.105 58.6914V55.2715ZM153.523 60.8218C153.561 60.747 153.58 60.7097 153.58 60.7097C153.58 60.6723 153.598 60.6162 153.636 60.5415C153.673 60.4667 153.692 60.4107 153.692 60.3733C153.692 60.2985 153.711 60.2238 153.748 60.149C153.786 60.0743 153.805 60.0182 153.805 59.9808C153.805 59.9435 153.823 59.8874 153.861 59.8126C153.861 59.7379 153.861 59.6818 153.861 59.6445C153.898 59.5697 153.917 59.495 153.917 59.4202C153.955 59.2707 153.973 59.1212 153.973 58.9717C154.011 58.8222 154.048 58.6727 154.086 58.5232C154.123 58.4111 154.142 58.2429 154.142 58.0186C154.142 57.9439 154.142 57.8691 154.142 57.7944C154.18 57.7196 154.198 57.6449 154.198 57.5701V55.6079C154.198 55.3836 154.18 55.2155 154.142 55.1033V54.8791C154.142 54.8043 154.123 54.7669 154.086 54.7669C154.086 54.7296 154.086 54.6735 154.086 54.5988C154.086 54.4119 154.048 54.1316 153.973 53.7578C153.936 53.6831 153.917 53.6083 153.917 53.5336C153.917 53.4588 153.898 53.3841 153.861 53.3093C153.861 53.2719 153.842 53.2532 153.805 53.2532C153.805 53.2159 153.805 53.1785 153.805 53.1411C153.805 53.1037 153.786 53.0851 153.748 53.0851C153.748 53.0477 153.748 53.0103 153.748 52.9729C153.711 52.8982 153.692 52.8421 153.692 52.8047C153.692 52.7674 153.673 52.7113 153.636 52.6365C153.598 52.5618 153.58 52.5057 153.58 52.4684C153.58 52.431 153.561 52.3749 153.523 52.3002C153.486 52.2628 153.467 52.2254 153.467 52.188C153.467 52.1507 153.448 52.1133 153.411 52.0759C153.336 51.9264 153.298 51.8517 153.298 51.8517C153.261 51.8143 153.242 51.7956 153.242 51.7956C153.242 51.7582 153.223 51.7208 153.186 51.6835C153.148 51.6461 153.13 51.6087 153.13 51.5713C153.092 51.534 153.073 51.4966 153.073 51.4592H153.017C153.017 51.4592 153.036 51.4966 153.073 51.5713V51.6835C153.111 51.7208 153.13 51.7956 153.13 51.9077C153.13 51.9451 153.13 51.9825 153.13 52.0198C153.167 52.0198 153.186 52.0572 153.186 52.132C153.186 52.2441 153.205 52.3375 153.242 52.4123V52.6926C153.242 52.7674 153.242 52.8234 153.242 52.8608C153.28 52.8982 153.298 52.9542 153.298 53.029C153.298 53.3654 153.317 53.627 153.355 53.8139V54.7109C153.392 54.8978 153.411 55.1968 153.411 55.6079V57.7383C153.373 57.8131 153.355 57.9065 153.355 58.0186V59.3081C153.317 59.4576 153.298 59.6071 153.298 59.7566C153.298 59.8687 153.298 59.9808 153.298 60.093C153.298 60.1677 153.28 60.2238 153.242 60.2612C153.242 60.2985 153.242 60.3546 153.242 60.4293V60.7657C153.205 60.8405 153.186 60.9339 153.186 61.046C153.186 61.1208 153.167 61.1955 153.13 61.2703C153.13 61.345 153.111 61.4011 153.073 61.4385V61.5506L153.017 61.6627C153.017 61.6627 153.055 61.644 153.13 61.6067V61.5506L153.186 61.4945C153.223 61.4572 153.242 61.4385 153.242 61.4385C153.242 61.4011 153.261 61.3637 153.298 61.3264C153.336 61.2516 153.373 61.1769 153.411 61.1021C153.448 60.99 153.486 60.8965 153.523 60.8218Z" fill="black"/>
<path d="M175.509 82.3501C175.509 83.0229 175.566 83.5274 175.678 83.8638C175.828 84.1628 175.978 84.4057 176.128 84.5926C176.278 84.7421 176.409 84.8916 176.522 85.0411C176.672 85.1906 176.747 85.4336 176.747 85.77H161.446C161.221 85.77 161.015 85.6765 160.827 85.4896C160.64 85.3028 160.546 85.0972 160.546 84.8729C160.546 85.0972 160.452 85.3028 160.265 85.4896C160.115 85.6765 159.909 85.77 159.646 85.77H156.721C156.721 85.4336 156.777 85.1906 156.89 85.0411C157.04 84.8916 157.19 84.7421 157.34 84.5926C157.49 84.4057 157.621 84.1628 157.734 83.8638C157.884 83.5648 157.959 83.0976 157.959 82.4622V68.7828C157.846 67.6241 157.321 66.7832 156.383 66.2599C156.796 65.9983 157.321 65.8675 157.959 65.8675V49.8334C157.959 49.198 157.884 48.7308 157.734 48.4318C157.621 48.1328 157.49 47.9085 157.34 47.759C157.19 47.5722 157.04 47.404 156.89 47.2545C156.777 47.105 156.721 46.862 156.721 46.5256H159.702C159.927 46.5256 160.134 46.6191 160.321 46.806C160.509 46.9555 160.602 47.161 160.602 47.4227C160.602 46.8246 160.902 46.5256 161.502 46.5256H176.747C176.747 46.862 176.672 47.105 176.522 47.2545C176.409 47.404 176.278 47.5722 176.128 47.759C175.978 47.9085 175.828 48.1515 175.678 48.4879C175.566 48.7869 175.509 49.2727 175.509 49.9455V57.4019C174.197 57.4019 173.184 57.159 172.472 56.6731C171.797 56.1498 171.29 55.5705 170.953 54.9351C170.54 54.225 170.315 53.3841 170.278 52.4123V50.6743C170.278 50.2632 170.128 49.9081 169.828 49.6091C169.528 49.3101 169.172 49.1419 168.759 49.1046H164.709C164.296 49.1419 163.94 49.3101 163.64 49.6091C163.34 49.9081 163.19 50.2632 163.19 50.6743V63.2886C163.19 63.6997 163.34 64.0548 163.64 64.3538C163.94 64.6528 164.296 64.8023 164.709 64.8023H165.103C165.515 64.8023 165.853 64.6528 166.115 64.3538C166.415 64.0548 166.565 63.6997 166.565 63.2886V63.2325C166.603 62.6719 166.753 62.186 167.015 61.7749C167.24 61.4011 167.578 61.0647 168.028 60.7657C168.478 60.4667 169.134 60.3172 169.997 60.3172V71.9223C169.134 71.9223 168.478 71.7728 168.028 71.4738C167.578 71.1748 167.24 70.8384 167.015 70.4647C166.753 70.0535 166.603 69.5677 166.565 69.007C166.565 68.5959 166.415 68.2408 166.115 67.9418C165.853 67.6428 165.515 67.4746 165.103 67.4373H164.709C164.296 67.4746 163.94 67.6428 163.64 67.9418C163.34 68.2408 163.19 68.5959 163.19 69.007V81.6213C163.19 82.0324 163.34 82.3875 163.64 82.6865C163.94 82.9855 164.296 83.135 164.709 83.135H168.759C169.172 83.135 169.528 82.9855 169.828 82.6865C170.128 82.3875 170.278 82.0324 170.278 81.6213V79.8272C170.315 78.8929 170.54 78.0706 170.953 77.3605C171.29 76.7251 171.797 76.1458 172.472 75.6225C173.184 75.0992 174.197 74.8376 175.509 74.8376V82.3501ZM160.996 63.5128C160.996 63.3259 160.977 63.1204 160.94 62.8961C160.94 62.6719 160.94 62.4476 160.94 62.2234V60.99C160.902 60.1677 160.884 59.3828 160.884 58.6353C160.884 57.8878 160.865 57.1777 160.827 56.5049C160.79 56.2059 160.771 55.9069 160.771 55.6079C160.771 55.3089 160.752 55.0286 160.715 54.7669C160.715 54.4679 160.696 54.2063 160.659 53.9821C160.659 53.7578 160.659 53.5522 160.659 53.3654C160.659 53.1785 160.64 53.0103 160.602 52.8608C160.602 52.7113 160.602 52.5805 160.602 52.4684V52.188C160.565 52.188 160.546 52.2067 160.546 52.2441V52.4684C160.546 52.5805 160.527 52.7113 160.49 52.8608C160.49 53.0103 160.49 53.1785 160.49 53.3654C160.49 53.5522 160.471 53.7578 160.434 53.9821C160.434 54.2063 160.434 54.4679 160.434 54.7669C160.396 55.0286 160.377 55.3089 160.377 55.6079C160.377 55.9069 160.359 56.2059 160.321 56.5049C160.284 57.1777 160.265 57.8878 160.265 58.6353C160.265 59.3828 160.246 60.1677 160.209 60.99V62.2234C160.209 62.4476 160.19 62.6719 160.152 62.8961C160.152 63.1204 160.152 63.3259 160.152 63.5128V68.7267C160.152 69.0257 160.171 69.25 160.209 69.3995V71.2496C160.209 71.6607 160.209 72.0718 160.209 72.483C160.246 72.8567 160.265 73.2305 160.265 73.6042C160.265 74.0153 160.265 74.3891 160.265 74.7255C160.302 75.0619 160.321 75.3982 160.321 75.7346C160.359 76.071 160.377 76.3887 160.377 76.6877C160.377 76.9493 160.396 77.2296 160.434 77.5286C160.434 77.7903 160.434 78.0332 160.434 78.2575C160.471 78.4817 160.49 78.6873 160.49 78.8742C160.49 79.061 160.49 79.2479 160.49 79.4348C160.527 79.5843 160.546 79.6964 160.546 79.7712V80.0515C160.546 80.0889 160.565 80.1076 160.602 80.1076V79.7712C160.602 79.6964 160.602 79.5843 160.602 79.4348C160.64 79.2479 160.659 79.061 160.659 78.8742C160.659 78.6873 160.659 78.4817 160.659 78.2575C160.696 78.0332 160.715 77.7903 160.715 77.5286C160.752 77.2296 160.771 76.9493 160.771 76.6877C160.771 76.3887 160.79 76.071 160.827 75.7346C160.827 75.3982 160.827 75.0619 160.827 74.7255C160.865 74.3891 160.884 74.0153 160.884 73.6042C160.884 73.2305 160.884 72.8567 160.884 72.483C160.921 72.0718 160.94 71.6607 160.94 71.2496V70.0162C160.94 69.7172 160.959 69.5116 160.996 69.3995V63.5128Z" fill="black"/>
<path d="M198.139 88.1246C198.551 88.1994 198.833 88.3302 198.983 88.5171C199.17 88.7039 199.301 88.8908 199.376 89.0777C199.451 89.3019 199.489 89.5449 199.489 89.8065C198.289 89.8065 197.164 89.657 196.114 89.358C195.064 89.059 194.126 88.5731 193.301 87.9004C192.514 87.2276 191.876 86.3493 191.388 85.2654C190.938 84.1815 190.713 82.8547 190.713 81.2849V73.6042C190.713 73.1183 190.695 72.5203 190.657 71.8102C190.62 71.1001 190.488 70.4273 190.263 69.7919C190.038 69.1565 189.682 68.6146 189.195 68.1661C188.745 67.6802 188.07 67.4373 187.17 67.4373H184.863C184.526 67.512 184.226 67.6989 183.963 67.9979C183.738 68.2595 183.626 68.5772 183.626 68.951V82.3501C183.626 83.0229 183.682 83.5274 183.794 83.8638C183.944 84.1628 184.094 84.4057 184.244 84.5926C184.394 84.7421 184.526 84.8916 184.638 85.0411C184.788 85.1906 184.863 85.4336 184.863 85.77H181.882C181.657 85.77 181.45 85.6765 181.263 85.4896C181.075 85.3028 180.982 85.0972 180.982 84.8729C180.982 85.0972 180.888 85.3028 180.7 85.4896C180.55 85.6765 180.344 85.77 180.082 85.77H177.157C177.157 85.4336 177.213 85.1906 177.325 85.0411C177.475 84.8916 177.625 84.7421 177.775 84.5926C177.925 84.4057 178.057 84.1628 178.169 83.8638C178.319 83.5648 178.394 83.0976 178.394 82.4622V68.7828C178.282 67.6241 177.757 66.7832 176.819 66.2599C177.232 65.9983 177.757 65.8675 178.394 65.8675V49.8334C178.394 49.198 178.319 48.7308 178.169 48.4318C178.057 48.1328 177.925 47.9085 177.775 47.759C177.625 47.5722 177.475 47.404 177.325 47.2545C177.213 47.105 177.157 46.862 177.157 46.5256H180.138C180.363 46.5256 180.569 46.6191 180.757 46.806C180.944 46.9555 181.038 47.161 181.038 47.4227C181.038 46.8246 181.338 46.5256 181.938 46.5256H187.226C188.426 46.5256 189.551 46.7499 190.601 47.1984C191.651 47.6469 192.57 48.2636 193.357 49.0485C194.145 49.796 194.764 50.693 195.214 51.7395C195.664 52.786 195.907 53.8886 195.945 55.0473V58.6914C195.945 60.2612 195.57 61.7001 194.82 63.0083C194.07 64.3164 193.057 65.3629 191.782 66.1478C193.057 66.8953 194.07 67.9418 194.82 69.2873C195.57 70.5955 195.945 72.0344 195.945 73.6042V81.0606C195.945 81.8455 195.945 82.6491 195.945 83.4714C195.982 84.2562 196.076 84.9851 196.226 85.6578C196.376 86.2932 196.601 86.8352 196.901 87.2837C197.201 87.7322 197.614 88.0125 198.139 88.1246ZM193.02 57.7383C192.982 57.8131 192.964 57.9065 192.964 58.0186V59.3081C192.926 59.4576 192.907 59.6071 192.907 59.7566C192.907 59.8687 192.907 59.9808 192.907 60.093C192.907 60.1677 192.889 60.2238 192.851 60.2612C192.851 60.2985 192.851 60.3546 192.851 60.4293V60.7657C192.814 60.8405 192.795 60.9339 192.795 61.046C192.795 61.1208 192.776 61.1955 192.739 61.2703C192.739 61.345 192.72 61.4011 192.682 61.4385V61.5506L192.626 61.6627C192.626 61.6627 192.664 61.644 192.739 61.6067V61.5506L192.795 61.4945C192.832 61.4572 192.851 61.4385 192.851 61.4385C192.851 61.4011 192.87 61.3637 192.907 61.3264C192.945 61.2516 192.982 61.1769 193.02 61.1021C193.057 60.99 193.095 60.8965 193.132 60.8218C193.17 60.747 193.189 60.7097 193.189 60.7097C193.189 60.6723 193.207 60.6162 193.245 60.5415C193.282 60.4667 193.301 60.4107 193.301 60.3733C193.301 60.2985 193.32 60.2238 193.357 60.149C193.395 60.0743 193.414 60.0182 193.414 59.9808C193.414 59.9435 193.432 59.8874 193.47 59.8126C193.47 59.7379 193.47 59.6818 193.47 59.6445C193.507 59.5697 193.526 59.495 193.526 59.4202C193.564 59.2707 193.582 59.1212 193.582 58.9717C193.62 58.8222 193.657 58.6727 193.695 58.5232C193.732 58.4111 193.751 58.2429 193.751 58.0186C193.751 57.9439 193.751 57.8691 193.751 57.7944C193.789 57.7196 193.807 57.6449 193.807 57.5701V55.6079C193.807 55.3836 193.789 55.2155 193.751 55.1033V54.8791C193.751 54.8043 193.732 54.7669 193.695 54.7669C193.695 54.7296 193.695 54.6735 193.695 54.5988C193.695 54.4119 193.657 54.1316 193.582 53.7578C193.545 53.6831 193.526 53.6083 193.526 53.5336C193.526 53.4588 193.507 53.3841 193.47 53.3093C193.47 53.2719 193.451 53.2532 193.414 53.2532C193.414 53.2159 193.414 53.1785 193.414 53.1411C193.414 53.1037 193.395 53.0851 193.357 53.0851C193.357 53.0477 193.357 53.0103 193.357 52.9729C193.32 52.8982 193.301 52.8421 193.301 52.8047C193.301 52.7674 193.282 52.7113 193.245 52.6365C193.207 52.5618 193.189 52.5057 193.189 52.4684C193.189 52.431 193.17 52.3749 193.132 52.3002C193.095 52.2628 193.076 52.2254 193.076 52.188C193.076 52.1507 193.057 52.1133 193.02 52.0759C192.945 51.9264 192.907 51.8517 192.907 51.8517C192.87 51.8143 192.851 51.7956 192.851 51.7956C192.851 51.7582 192.832 51.7208 192.795 51.6835C192.757 51.6461 192.739 51.6087 192.739 51.5713C192.701 51.534 192.682 51.4966 192.682 51.4592H192.626C192.626 51.4592 192.645 51.4966 192.682 51.5713V51.6835C192.72 51.7208 192.739 51.7956 192.739 51.9077C192.739 51.9451 192.739 51.9825 192.739 52.0198C192.776 52.0198 192.795 52.0572 192.795 52.132C192.795 52.2441 192.814 52.3375 192.851 52.4123V52.6926C192.851 52.7674 192.851 52.8234 192.851 52.8608C192.889 52.8982 192.907 52.9542 192.907 53.029C192.907 53.3654 192.926 53.627 192.964 53.8139V54.7109C193.001 54.8978 193.02 55.1968 193.02 55.6079V57.7383ZM181.432 63.5128C181.432 63.3259 181.413 63.1204 181.375 62.8961C181.375 62.6719 181.375 62.4476 181.375 62.2234V60.99C181.338 60.1677 181.319 59.3828 181.319 58.6353C181.319 57.8878 181.3 57.1777 181.263 56.5049C181.225 56.2059 181.207 55.9069 181.207 55.6079C181.207 55.3089 181.188 55.0286 181.15 54.7669C181.15 54.4679 181.132 54.2063 181.094 53.9821C181.094 53.7578 181.094 53.5522 181.094 53.3654C181.094 53.1785 181.075 53.0103 181.038 52.8608C181.038 52.7113 181.038 52.5805 181.038 52.4684V52.188C181 52.188 180.982 52.2067 180.982 52.2441V52.4684C180.982 52.5805 180.963 52.7113 180.925 52.8608C180.925 53.0103 180.925 53.1785 180.925 53.3654C180.925 53.5522 180.907 53.7578 180.869 53.9821C180.869 54.2063 180.869 54.4679 180.869 54.7669C180.832 55.0286 180.813 55.3089 180.813 55.6079C180.813 55.9069 180.794 56.2059 180.757 56.5049C180.719 57.1777 180.7 57.8878 180.7 58.6353C180.7 59.3828 180.682 60.1677 180.644 60.99V62.2234C180.644 62.4476 180.625 62.6719 180.588 62.8961C180.588 63.1204 180.588 63.3259 180.588 63.5128V68.7267C180.588 69.0257 180.607 69.25 180.644 69.3995V71.2496C180.644 71.6607 180.644 72.0718 180.644 72.483C180.682 72.8567 180.7 73.2305 180.7 73.6042C180.7 74.0153 180.7 74.3891 180.7 74.7255C180.738 75.0619 180.757 75.3982 180.757 75.7346C180.794 76.071 180.813 76.3887 180.813 76.6877C180.813 76.9493 180.832 77.2296 180.869 77.5286C180.869 77.7903 180.869 78.0332 180.869 78.2575C180.907 78.4817 180.925 78.6873 180.925 78.8742C180.925 79.061 180.925 79.2479 180.925 79.4348C180.963 79.5843 180.982 79.6964 180.982 79.7712V80.0515C180.982 80.0889 181 80.1076 181.038 80.1076V79.7712C181.038 79.6964 181.038 79.5843 181.038 79.4348C181.075 79.2479 181.094 79.061 181.094 78.8742C181.094 78.6873 181.094 78.4817 181.094 78.2575C181.132 78.0332 181.15 77.7903 181.15 77.5286C181.188 77.2296 181.207 76.9493 181.207 76.6877C181.207 76.3887 181.225 76.071 181.263 75.7346C181.263 75.3982 181.263 75.0619 181.263 74.7255C181.3 74.3891 181.319 74.0153 181.319 73.6042C181.319 73.2305 181.319 72.8567 181.319 72.483C181.357 72.0718 181.375 71.6607 181.375 71.2496V70.0162C181.375 69.7172 181.394 69.5116 181.432 69.3995V63.5128ZM190.713 55.2715C190.713 54.7856 190.695 54.1876 190.657 53.4775C190.62 52.7674 190.488 52.0946 190.263 51.4592C190.038 50.8238 189.682 50.2819 189.195 49.8334C188.745 49.3475 188.07 49.1046 187.17 49.1046H185.144C184.732 49.1419 184.376 49.3101 184.076 49.6091C183.776 49.9081 183.626 50.2632 183.626 50.6743V63.2886C183.626 63.6997 183.776 64.0548 184.076 64.3538C184.376 64.6528 184.732 64.8023 185.144 64.8023H187.17C188.07 64.8023 188.745 64.578 189.195 64.1295C189.682 63.681 190.038 63.1391 190.263 62.5037C190.488 61.8309 190.62 61.1582 190.657 60.4854C190.695 59.7753 190.713 59.1773 190.713 58.6914V55.2715ZM194.482 85.9942C194.482 85.9942 194.464 85.9755 194.426 85.9381L194.37 85.8821C194.332 85.8073 194.295 85.7326 194.257 85.6578C194.257 85.5831 194.22 85.5083 194.145 85.4336C194.107 85.3214 194.07 85.2093 194.032 85.0972C193.995 84.9477 193.957 84.7795 193.92 84.5926C193.845 84.2189 193.807 83.8638 193.807 83.5274C193.77 83.3405 193.751 83.1537 193.751 82.9668C193.751 82.7425 193.751 82.4996 193.751 82.238V79.2666C193.751 79.005 193.751 78.7434 193.751 78.4817C193.751 78.2201 193.77 77.9398 193.807 77.6408C193.807 77.3791 193.807 77.1175 193.807 76.8559C193.807 76.5943 193.789 76.3326 193.751 76.071V75.2861C193.751 74.9124 193.732 74.6507 193.695 74.5012C193.695 74.2396 193.676 73.9967 193.639 73.7724C193.639 73.5108 193.62 73.2678 193.582 73.0436C193.507 72.5203 193.432 72.0718 193.357 71.6981C193.32 71.5112 193.282 71.343 193.245 71.1935C193.207 71.0066 193.151 70.8197 193.076 70.6329C193.001 70.446 192.945 70.2965 192.907 70.1844C192.87 70.0722 192.814 69.9601 192.739 69.848C192.664 69.7358 192.607 69.6424 192.57 69.5677C192.532 69.4929 192.495 69.4182 192.457 69.3434C192.42 69.3434 192.382 69.3247 192.345 69.2873C192.307 69.2873 192.289 69.2687 192.289 69.2313L192.345 69.2873C192.345 69.3247 192.364 69.3621 192.401 69.3995C192.401 69.4368 192.401 69.4742 192.401 69.5116C192.439 69.5116 192.457 69.549 192.457 69.6237C192.495 69.6611 192.514 69.6985 192.514 69.7358C192.514 69.7732 192.532 69.8293 192.57 69.904C192.607 70.0535 192.664 70.3152 192.739 70.6889C192.776 70.8758 192.795 71.0627 192.795 71.2496C192.832 71.4364 192.87 71.6233 192.907 71.8102C192.907 71.9971 192.907 72.2026 192.907 72.4269C192.945 72.6138 192.964 72.838 192.964 73.0996V80.0515C192.964 80.201 192.964 80.3318 192.964 80.4439C193.001 80.5561 193.02 80.6869 193.02 80.8364C193.02 81.098 193.02 81.3596 193.02 81.6213C193.057 81.8455 193.095 82.0698 193.132 82.294C193.17 82.5183 193.189 82.7425 193.189 82.9668C193.226 83.191 193.264 83.3966 193.301 83.5835C193.376 83.8077 193.432 84.0133 193.47 84.2002C193.507 84.3497 193.564 84.5179 193.639 84.7048C193.714 84.8916 193.77 85.0411 193.807 85.1533C193.845 85.2654 193.901 85.3775 193.976 85.4896L194.089 85.6018C194.126 85.6391 194.145 85.6765 194.145 85.7139C194.145 85.7139 194.164 85.7326 194.201 85.77L194.426 85.9942H194.482Z" fill="black"/>
<path d="M210.947 64.0254C212.611 64.0254 213.961 65.3701 213.961 67.0288C213.961 68.6876 212.611 70.0322 210.947 70.0322C209.283 70.0322 207.934 68.6876 207.934 67.0288C207.934 65.3701 209.283 64.0254 210.947 64.0254Z" fill="#363330"/>
<path d="M19.0858 64.0254C20.7501 64.0254 22.0993 65.3701 22.0993 67.0288C22.0993 68.6876 20.7501 70.0322 19.0858 70.0322C17.4215 70.0322 16.0723 68.6876 16.0723 67.0288C16.0723 65.3701 17.4215 64.0254 19.0858 64.0254Z" fill="#363330"/>
</svg>
